<svg width="1440" height="699" viewBox="0 0 1440 699" fill="none" xmlns="http://www.w3.org/2000/svg">
<rect width="1440" height="475" fill="#303030"/>
<rect y="470" width="1440" height="229" fill="#F9F9F9"/>
<path d="M183.926 595.398C181.814 595.398 179.939 595.043 178.301 594.332C176.672 593.622 175.394 592.652 174.466 591.42C173.547 590.18 173.093 588.774 173.102 587.202C173.093 585.98 173.358 584.858 173.898 583.835C174.438 582.812 175.167 581.96 176.085 581.278C177.013 580.587 178.045 580.147 179.182 579.957V579.759C177.686 579.427 176.473 578.665 175.545 577.472C174.627 576.269 174.172 574.882 174.182 573.31C174.172 571.813 174.589 570.478 175.432 569.304C176.275 568.13 177.43 567.206 178.898 566.534C180.366 565.852 182.042 565.511 183.926 565.511C185.792 565.511 187.454 565.852 188.912 566.534C190.38 567.206 191.535 568.13 192.378 569.304C193.23 570.478 193.656 571.813 193.656 573.31C193.656 574.882 193.188 576.269 192.25 577.472C191.322 578.665 190.124 579.427 188.656 579.759V579.957C189.793 580.147 190.815 580.587 191.724 581.278C192.643 581.96 193.372 582.812 193.912 583.835C194.461 584.858 194.736 585.98 194.736 587.202C194.736 588.774 194.272 590.18 193.344 591.42C192.416 592.652 191.137 593.622 189.509 594.332C187.889 595.043 186.028 595.398 183.926 595.398ZM183.926 591.335C185.015 591.335 185.962 591.151 186.767 590.781C187.572 590.402 188.197 589.872 188.642 589.19C189.087 588.509 189.314 587.723 189.324 586.832C189.314 585.904 189.073 585.085 188.599 584.375C188.135 583.655 187.496 583.092 186.682 582.685C185.877 582.277 184.958 582.074 183.926 582.074C182.884 582.074 181.956 582.277 181.142 582.685C180.328 583.092 179.684 583.655 179.21 584.375C178.746 585.085 178.519 585.904 178.528 586.832C178.519 587.723 178.737 588.509 179.182 589.19C179.627 589.863 180.252 590.388 181.057 590.767C181.871 591.146 182.828 591.335 183.926 591.335ZM183.926 578.082C184.816 578.082 185.602 577.902 186.284 577.543C186.975 577.183 187.52 576.681 187.918 576.037C188.315 575.393 188.519 574.65 188.528 573.807C188.519 572.973 188.32 572.244 187.932 571.619C187.544 570.985 187.004 570.497 186.312 570.156C185.621 569.806 184.826 569.631 183.926 569.631C183.008 569.631 182.198 569.806 181.497 570.156C180.806 570.497 180.266 570.985 179.878 571.619C179.499 572.244 179.314 572.973 179.324 573.807C179.314 574.65 179.504 575.393 179.892 576.037C180.29 576.671 180.834 577.173 181.526 577.543C182.226 577.902 183.027 578.082 183.926 578.082ZM209.519 595.398C207.625 595.398 205.93 595.043 204.434 594.332C202.938 593.613 201.749 592.628 200.869 591.378C199.997 590.128 199.533 588.698 199.477 587.088H204.59C204.685 588.281 205.201 589.257 206.138 590.014C207.076 590.762 208.203 591.136 209.519 591.136C210.551 591.136 211.47 590.9 212.275 590.426C213.08 589.953 213.714 589.295 214.178 588.452C214.642 587.609 214.87 586.648 214.86 585.568C214.87 584.47 214.638 583.494 214.164 582.642C213.691 581.79 213.042 581.122 212.218 580.639C211.394 580.147 210.447 579.901 209.377 579.901C208.506 579.891 207.649 580.052 206.806 580.384C205.963 580.715 205.296 581.151 204.803 581.69L200.045 580.909L201.565 565.909H218.44V570.312H205.925L205.087 578.026H205.258C205.798 577.391 206.56 576.866 207.545 576.449C208.53 576.023 209.609 575.81 210.783 575.81C212.545 575.81 214.117 576.226 215.499 577.06C216.882 577.884 217.971 579.02 218.766 580.469C219.562 581.918 219.96 583.575 219.96 585.44C219.96 587.363 219.514 589.077 218.624 590.582C217.744 592.079 216.517 593.258 214.945 594.119C213.383 594.972 211.574 595.398 209.519 595.398ZM235.471 595.554C233.132 595.554 231.124 594.962 229.448 593.778C227.781 592.585 226.498 590.866 225.599 588.622C224.709 586.368 224.263 583.655 224.263 580.483C224.273 577.311 224.723 574.612 225.613 572.386C226.513 570.152 227.796 568.447 229.462 567.273C231.138 566.098 233.141 565.511 235.471 565.511C237.8 565.511 239.803 566.098 241.479 567.273C243.156 568.447 244.439 570.152 245.329 572.386C246.228 574.621 246.678 577.32 246.678 580.483C246.678 583.665 246.228 586.383 245.329 588.636C244.439 590.881 243.156 592.595 241.479 593.778C239.813 594.962 237.81 595.554 235.471 595.554ZM235.471 591.108C237.289 591.108 238.724 590.213 239.775 588.423C240.835 586.624 241.366 583.977 241.366 580.483C241.366 578.172 241.124 576.231 240.641 574.659C240.158 573.087 239.477 571.903 238.596 571.108C237.715 570.303 236.674 569.901 235.471 569.901C233.662 569.901 232.232 570.8 231.181 572.599C230.13 574.389 229.6 577.017 229.59 580.483C229.581 582.803 229.813 584.754 230.286 586.335C230.769 587.917 231.451 589.11 232.332 589.915C233.212 590.71 234.259 591.108 235.471 591.108ZM177.108 623.227C176.057 623.227 175.15 622.995 174.388 622.531C173.63 622.062 173.045 621.409 172.634 620.571C172.226 619.728 172.023 618.748 172.023 617.631C172.023 616.513 172.226 615.528 172.634 614.676C173.045 613.819 173.618 613.152 174.352 612.673C175.091 612.19 175.953 611.949 176.938 611.949C177.506 611.949 178.067 612.044 178.621 612.233C179.175 612.422 179.679 612.73 180.134 613.156C180.588 613.578 180.95 614.136 181.22 614.832C181.49 615.528 181.625 616.385 181.625 617.403V618.114H173.216V616.665H179.92C179.92 616.049 179.797 615.5 179.551 615.017C179.31 614.534 178.964 614.153 178.514 613.874C178.069 613.594 177.544 613.455 176.938 613.455C176.27 613.455 175.692 613.62 175.205 613.952C174.722 614.278 174.35 614.705 174.089 615.23C173.829 615.756 173.699 616.319 173.699 616.92V617.886C173.699 618.71 173.841 619.409 174.125 619.982C174.414 620.55 174.814 620.983 175.325 621.281C175.837 621.575 176.431 621.722 177.108 621.722C177.548 621.722 177.946 621.66 178.301 621.537C178.661 621.409 178.971 621.22 179.232 620.969C179.492 620.713 179.693 620.396 179.835 620.017L181.455 620.472C181.284 621.021 180.998 621.504 180.595 621.92C180.193 622.332 179.696 622.654 179.104 622.886C178.512 623.114 177.847 623.227 177.108 623.227ZM184.175 623V612.091H185.794V613.795H185.936C186.163 613.213 186.53 612.761 187.037 612.439C187.544 612.112 188.152 611.949 188.862 611.949C189.582 611.949 190.181 612.112 190.659 612.439C191.142 612.761 191.518 613.213 191.788 613.795H191.902C192.181 613.232 192.6 612.785 193.159 612.453C193.718 612.117 194.388 611.949 195.169 611.949C196.144 611.949 196.942 612.254 197.562 612.865C198.183 613.471 198.493 614.416 198.493 615.699V623H196.817V615.699C196.817 614.894 196.597 614.319 196.156 613.973C195.716 613.627 195.197 613.455 194.601 613.455C193.834 613.455 193.24 613.687 192.818 614.151C192.397 614.61 192.186 615.192 192.186 615.898V623H190.482V615.528C190.482 614.908 190.28 614.409 189.878 614.03C189.475 613.646 188.957 613.455 188.322 613.455C187.887 613.455 187.48 613.571 187.101 613.803C186.727 614.035 186.424 614.357 186.192 614.768C185.964 615.176 185.851 615.647 185.851 616.182V623H184.175ZM201.558 627.091V612.091H203.177V613.824H203.376C203.499 613.634 203.669 613.393 203.887 613.099C204.11 612.801 204.427 612.536 204.839 612.304C205.255 612.067 205.819 611.949 206.529 611.949C207.448 611.949 208.257 612.179 208.958 612.638C209.659 613.097 210.206 613.748 210.599 614.591C210.992 615.434 211.188 616.428 211.188 617.574C211.188 618.729 210.992 619.731 210.599 620.578C210.206 621.421 209.661 622.074 208.965 622.538C208.269 622.998 207.467 623.227 206.558 623.227C205.857 623.227 205.296 623.111 204.874 622.879C204.453 622.643 204.129 622.375 203.901 622.077C203.674 621.774 203.499 621.523 203.376 621.324H203.234V627.091H201.558ZM203.205 617.545C203.205 618.369 203.326 619.096 203.567 619.726C203.809 620.351 204.162 620.841 204.626 621.196C205.09 621.546 205.658 621.722 206.33 621.722C207.031 621.722 207.616 621.537 208.085 621.168C208.558 620.794 208.913 620.292 209.15 619.662C209.391 619.027 209.512 618.322 209.512 617.545C209.512 616.778 209.394 616.087 209.157 615.472C208.925 614.851 208.572 614.361 208.099 614.001C207.63 613.637 207.04 613.455 206.33 613.455C205.648 613.455 205.076 613.627 204.612 613.973C204.147 614.314 203.797 614.792 203.56 615.408C203.324 616.018 203.205 616.731 203.205 617.545ZM213.745 623V612.091H215.364V613.739H215.478C215.677 613.199 216.037 612.761 216.558 612.425C217.078 612.089 217.665 611.92 218.319 611.92C218.442 611.92 218.596 611.923 218.781 611.928C218.965 611.932 219.105 611.939 219.2 611.949V613.653C219.143 613.639 219.013 613.618 218.809 613.589C218.61 613.556 218.399 613.54 218.177 613.54C217.647 613.54 217.173 613.651 216.756 613.874C216.344 614.091 216.018 614.394 215.776 614.783C215.54 615.166 215.421 615.604 215.421 616.097V623H213.745ZM225.428 623.227C224.377 623.227 223.47 622.995 222.708 622.531C221.951 622.062 221.366 621.409 220.954 620.571C220.547 619.728 220.343 618.748 220.343 617.631C220.343 616.513 220.547 615.528 220.954 614.676C221.366 613.819 221.939 613.152 222.673 612.673C223.411 612.19 224.273 611.949 225.258 611.949C225.826 611.949 226.387 612.044 226.941 612.233C227.495 612.422 227.999 612.73 228.454 613.156C228.908 613.578 229.271 614.136 229.54 614.832C229.81 615.528 229.945 616.385 229.945 617.403V618.114H221.536V616.665H228.241C228.241 616.049 228.118 615.5 227.871 615.017C227.63 614.534 227.284 614.153 226.835 613.874C226.389 613.594 225.864 613.455 225.258 613.455C224.59 613.455 224.013 613.62 223.525 613.952C223.042 614.278 222.67 614.705 222.41 615.23C222.149 615.756 222.019 616.319 222.019 616.92V617.886C222.019 618.71 222.161 619.409 222.445 619.982C222.734 620.55 223.134 620.983 223.646 621.281C224.157 621.575 224.751 621.722 225.428 621.722C225.869 621.722 226.266 621.66 226.621 621.537C226.981 621.409 227.291 621.22 227.552 620.969C227.812 620.713 228.013 620.396 228.156 620.017L229.775 620.472C229.604 621.021 229.318 621.504 228.915 621.92C228.513 622.332 228.016 622.654 227.424 622.886C226.832 623.114 226.167 623.227 225.428 623.227ZM237.069 623.227C236.018 623.227 235.111 622.995 234.349 622.531C233.591 622.062 233.006 621.409 232.594 620.571C232.187 619.728 231.984 618.748 231.984 617.631C231.984 616.513 232.187 615.528 232.594 614.676C233.006 613.819 233.579 613.152 234.313 612.673C235.052 612.19 235.914 611.949 236.898 611.949C237.467 611.949 238.028 612.044 238.582 612.233C239.136 612.422 239.64 612.73 240.094 613.156C240.549 613.578 240.911 614.136 241.181 614.832C241.451 615.528 241.586 616.385 241.586 617.403V618.114H233.177V616.665H239.881C239.881 616.049 239.758 615.5 239.512 615.017C239.271 614.534 238.925 614.153 238.475 613.874C238.03 613.594 237.504 613.455 236.898 613.455C236.231 613.455 235.653 613.62 235.165 613.952C234.683 614.278 234.311 614.705 234.05 615.23C233.79 615.756 233.66 616.319 233.66 616.92V617.886C233.66 618.71 233.802 619.409 234.086 619.982C234.375 620.55 234.775 620.983 235.286 621.281C235.798 621.575 236.392 621.722 237.069 621.722C237.509 621.722 237.907 621.66 238.262 621.537C238.622 621.409 238.932 621.22 239.192 620.969C239.453 620.713 239.654 620.396 239.796 620.017L241.415 620.472C241.245 621.021 240.959 621.504 240.556 621.92C240.154 622.332 239.656 622.654 239.065 622.886C238.473 623.114 237.808 623.227 237.069 623.227ZM245.812 616.438V623H244.136V612.091H245.755V613.795H245.897C246.153 613.241 246.541 612.796 247.062 612.46C247.583 612.119 248.255 611.949 249.079 611.949C249.817 611.949 250.464 612.1 251.018 612.403C251.572 612.702 252.003 613.156 252.31 613.767C252.618 614.373 252.772 615.14 252.772 616.068V623H251.096V616.182C251.096 615.325 250.873 614.657 250.428 614.179C249.983 613.696 249.372 613.455 248.596 613.455C248.061 613.455 247.583 613.571 247.161 613.803C246.745 614.035 246.415 614.373 246.174 614.818C245.933 615.263 245.812 615.803 245.812 616.438ZM259.954 623.227C259.045 623.227 258.243 622.998 257.547 622.538C256.85 622.074 256.306 621.421 255.913 620.578C255.52 619.731 255.324 618.729 255.324 617.574C255.324 616.428 255.52 615.434 255.913 614.591C256.306 613.748 256.853 613.097 257.554 612.638C258.254 612.179 259.064 611.949 259.983 611.949C260.693 611.949 261.254 612.067 261.666 612.304C262.083 612.536 262.4 612.801 262.618 613.099C262.84 613.393 263.013 613.634 263.136 613.824H263.278V608.455H264.954V623H263.335V621.324H263.136C263.013 621.523 262.838 621.774 262.61 622.077C262.383 622.375 262.059 622.643 261.637 622.879C261.216 623.111 260.655 623.227 259.954 623.227ZM260.181 621.722C260.854 621.722 261.422 621.546 261.886 621.196C262.35 620.841 262.703 620.351 262.944 619.726C263.186 619.096 263.306 618.369 263.306 617.545C263.306 616.731 263.188 616.018 262.951 615.408C262.715 614.792 262.364 614.314 261.9 613.973C261.436 613.627 260.863 613.455 260.181 613.455C259.471 613.455 258.879 613.637 258.406 614.001C257.937 614.361 257.584 614.851 257.348 615.472C257.116 616.087 257 616.778 257 617.545C257 618.322 257.118 619.027 257.355 619.662C257.596 620.292 257.951 620.794 258.42 621.168C258.894 621.537 259.481 621.722 260.181 621.722ZM268.257 623V612.091H269.933V623H268.257ZM269.109 610.273C268.782 610.273 268.501 610.161 268.264 609.939C268.032 609.716 267.916 609.449 267.916 609.136C267.916 608.824 268.032 608.556 268.264 608.334C268.501 608.111 268.782 608 269.109 608C269.436 608 269.715 608.111 269.947 608.334C270.184 608.556 270.302 608.824 270.302 609.136C270.302 609.449 270.184 609.716 269.947 609.939C269.715 610.161 269.436 610.273 269.109 610.273ZM273.003 623V612.091H274.622V613.795H274.764C274.991 613.213 275.358 612.761 275.865 612.439C276.372 612.112 276.98 611.949 277.69 611.949C278.41 611.949 279.009 612.112 279.487 612.439C279.97 612.761 280.347 613.213 280.616 613.795H280.73C281.009 613.232 281.429 612.785 281.987 612.453C282.546 612.117 283.216 611.949 283.997 611.949C284.973 611.949 285.77 612.254 286.391 612.865C287.011 613.471 287.321 614.416 287.321 615.699V623H285.645V615.699C285.645 614.894 285.425 614.319 284.984 613.973C284.544 613.627 284.026 613.455 283.429 613.455C282.662 613.455 282.068 613.687 281.646 614.151C281.225 614.61 281.014 615.192 281.014 615.898V623H279.31V615.528C279.31 614.908 279.108 614.409 278.706 614.03C278.304 613.646 277.785 613.455 277.151 613.455C276.715 613.455 276.308 613.571 275.929 613.803C275.555 614.035 275.252 614.357 275.02 614.768C274.793 615.176 274.679 615.647 274.679 616.182V623H273.003ZM294.96 623.227C293.908 623.227 293.002 622.995 292.239 622.531C291.482 622.062 290.897 621.409 290.485 620.571C290.078 619.728 289.874 618.748 289.874 617.631C289.874 616.513 290.078 615.528 290.485 614.676C290.897 613.819 291.47 613.152 292.204 612.673C292.942 612.19 293.804 611.949 294.789 611.949C295.357 611.949 295.918 612.044 296.472 612.233C297.026 612.422 297.531 612.73 297.985 613.156C298.44 613.578 298.802 614.136 299.072 614.832C299.342 615.528 299.477 616.385 299.477 617.403V618.114H291.067V616.665H297.772C297.772 616.049 297.649 615.5 297.403 615.017C297.161 614.534 296.816 614.153 296.366 613.874C295.921 613.594 295.395 613.455 294.789 613.455C294.121 613.455 293.544 613.62 293.056 613.952C292.573 614.278 292.201 614.705 291.941 615.23C291.681 615.756 291.55 616.319 291.55 616.92V617.886C291.55 618.71 291.692 619.409 291.977 619.982C292.265 620.55 292.665 620.983 293.177 621.281C293.688 621.575 294.282 621.722 294.96 621.722C295.4 621.722 295.798 621.66 296.153 621.537C296.513 621.409 296.823 621.22 297.083 620.969C297.344 620.713 297.545 620.396 297.687 620.017L299.306 620.472C299.136 621.021 298.849 621.504 298.447 621.92C298.044 622.332 297.547 622.654 296.955 622.886C296.363 623.114 295.698 623.227 294.96 623.227ZM303.702 616.438V623H302.026V612.091H303.646V613.795H303.788C304.043 613.241 304.432 612.796 304.952 612.46C305.473 612.119 306.146 611.949 306.969 611.949C307.708 611.949 308.354 612.1 308.908 612.403C309.462 612.702 309.893 613.156 310.201 613.767C310.509 614.373 310.663 615.14 310.663 616.068V623H308.987V616.182C308.987 615.325 308.764 614.657 308.319 614.179C307.874 613.696 307.263 613.455 306.487 613.455C305.951 613.455 305.473 613.571 305.052 613.803C304.635 614.035 304.306 614.373 304.065 614.818C303.823 615.263 303.702 615.803 303.702 616.438ZM318.47 612.091V613.511H312.816V612.091H318.47ZM314.464 609.477H316.14V619.875C316.14 620.348 316.209 620.704 316.346 620.94C316.488 621.172 316.668 621.329 316.886 621.409C317.109 621.485 317.343 621.523 317.589 621.523C317.774 621.523 317.925 621.513 318.044 621.494C318.162 621.471 318.257 621.452 318.328 621.438L318.669 622.943C318.555 622.986 318.396 623.028 318.193 623.071C317.989 623.118 317.731 623.142 317.419 623.142C316.945 623.142 316.481 623.04 316.027 622.837C315.577 622.633 315.203 622.323 314.904 621.906C314.611 621.49 314.464 620.964 314.464 620.33V609.477ZM325.306 623.227C324.321 623.227 323.457 622.993 322.713 622.524C321.975 622.055 321.397 621.4 320.98 620.557C320.569 619.714 320.363 618.729 320.363 617.602C320.363 616.466 320.569 615.474 320.98 614.626C321.397 613.779 321.975 613.121 322.713 612.652C323.457 612.183 324.321 611.949 325.306 611.949C326.291 611.949 327.152 612.183 327.891 612.652C328.634 613.121 329.212 613.779 329.624 614.626C330.041 615.474 330.249 616.466 330.249 617.602C330.249 618.729 330.041 619.714 329.624 620.557C329.212 621.4 328.634 622.055 327.891 622.524C327.152 622.993 326.291 623.227 325.306 623.227ZM325.306 621.722C326.054 621.722 326.669 621.53 327.152 621.146C327.635 620.763 327.993 620.259 328.225 619.634C328.457 619.009 328.573 618.331 328.573 617.602C328.573 616.873 328.457 616.194 328.225 615.564C327.993 614.934 327.635 614.425 327.152 614.037C326.669 613.649 326.054 613.455 325.306 613.455C324.558 613.455 323.942 613.649 323.459 614.037C322.976 614.425 322.619 614.934 322.387 615.564C322.155 616.194 322.039 616.873 322.039 617.602C322.039 618.331 322.155 619.009 322.387 619.634C322.619 620.259 322.976 620.763 323.459 621.146C323.942 621.53 324.558 621.722 325.306 621.722ZM340.535 614.534L339.029 614.96C338.934 614.709 338.795 614.465 338.61 614.229C338.43 613.987 338.184 613.788 337.871 613.632C337.559 613.476 337.159 613.398 336.671 613.398C336.004 613.398 335.447 613.552 335.002 613.859C334.562 614.162 334.342 614.548 334.342 615.017C334.342 615.434 334.493 615.763 334.796 616.004C335.099 616.246 335.573 616.447 336.217 616.608L337.836 617.006C338.811 617.242 339.538 617.605 340.016 618.092C340.495 618.575 340.734 619.198 340.734 619.96C340.734 620.585 340.554 621.144 340.194 621.636C339.839 622.129 339.342 622.517 338.702 622.801C338.063 623.085 337.32 623.227 336.472 623.227C335.36 623.227 334.439 622.986 333.71 622.503C332.98 622.02 332.519 621.314 332.325 620.386L333.915 619.989C334.067 620.576 334.353 621.016 334.775 621.31C335.201 621.603 335.757 621.75 336.444 621.75C337.225 621.75 337.845 621.584 338.305 621.253C338.769 620.917 339.001 620.514 339.001 620.045C339.001 619.667 338.868 619.349 338.603 619.094C338.338 618.833 337.931 618.639 337.381 618.511L335.563 618.085C334.564 617.848 333.83 617.482 333.362 616.984C332.897 616.482 332.665 615.855 332.665 615.102C332.665 614.487 332.838 613.942 333.184 613.469C333.534 612.995 334.01 612.624 334.612 612.354C335.218 612.084 335.904 611.949 336.671 611.949C337.751 611.949 338.598 612.186 339.214 612.659C339.834 613.133 340.274 613.758 340.535 614.534ZM353.314 623.227C352.291 623.227 351.41 622.986 350.672 622.503C349.933 622.02 349.365 621.355 348.967 620.507C348.569 619.66 348.37 618.691 348.37 617.602C348.37 616.494 348.574 615.517 348.981 614.669C349.393 613.817 349.966 613.152 350.7 612.673C351.439 612.19 352.3 611.949 353.285 611.949C354.052 611.949 354.743 612.091 355.359 612.375C355.975 612.659 356.479 613.057 356.872 613.568C357.265 614.08 357.509 614.676 357.603 615.358H355.927C355.799 614.861 355.515 614.42 355.075 614.037C354.639 613.649 354.052 613.455 353.314 613.455C352.66 613.455 352.087 613.625 351.595 613.966C351.107 614.302 350.726 614.778 350.451 615.393C350.181 616.004 350.047 616.722 350.047 617.545C350.047 618.388 350.179 619.122 350.444 619.747C350.714 620.372 351.093 620.857 351.581 621.203C352.073 621.549 352.651 621.722 353.314 621.722C353.749 621.722 354.145 621.646 354.5 621.494C354.855 621.343 355.155 621.125 355.402 620.841C355.648 620.557 355.823 620.216 355.927 619.818H357.603C357.509 620.462 357.274 621.042 356.9 621.558C356.531 622.07 356.041 622.477 355.43 622.78C354.824 623.078 354.118 623.227 353.314 623.227ZM364.485 623.227C363.501 623.227 362.636 622.993 361.893 622.524C361.154 622.055 360.577 621.4 360.16 620.557C359.748 619.714 359.542 618.729 359.542 617.602C359.542 616.466 359.748 615.474 360.16 614.626C360.577 613.779 361.154 613.121 361.893 612.652C362.636 612.183 363.501 611.949 364.485 611.949C365.47 611.949 366.332 612.183 367.071 612.652C367.814 613.121 368.392 613.779 368.804 614.626C369.22 615.474 369.429 616.466 369.429 617.602C369.429 618.729 369.22 619.714 368.804 620.557C368.392 621.4 367.814 622.055 367.071 622.524C366.332 622.993 365.47 623.227 364.485 623.227ZM364.485 621.722C365.234 621.722 365.849 621.53 366.332 621.146C366.815 620.763 367.172 620.259 367.404 619.634C367.636 619.009 367.752 618.331 367.752 617.602C367.752 616.873 367.636 616.194 367.404 615.564C367.172 614.934 366.815 614.425 366.332 614.037C365.849 613.649 365.234 613.455 364.485 613.455C363.737 613.455 363.122 613.649 362.639 614.037C362.156 614.425 361.798 614.934 361.566 615.564C361.334 616.194 361.218 616.873 361.218 617.602C361.218 618.331 361.334 619.009 361.566 619.634C361.798 620.259 362.156 620.763 362.639 621.146C363.122 621.53 363.737 621.722 364.485 621.722ZM373.663 616.438V623H371.987V612.091H373.607V613.795H373.749C374.004 613.241 374.393 612.796 374.913 612.46C375.434 612.119 376.107 611.949 376.93 611.949C377.669 611.949 378.315 612.1 378.869 612.403C379.423 612.702 379.854 613.156 380.162 613.767C380.47 614.373 380.624 615.14 380.624 616.068V623H378.947V616.182C378.947 615.325 378.725 614.657 378.28 614.179C377.835 613.696 377.224 613.455 376.447 613.455C375.912 613.455 375.434 613.571 375.013 613.803C374.596 614.035 374.267 614.373 374.026 614.818C373.784 615.263 373.663 615.803 373.663 616.438ZM391.414 614.534L389.908 614.96C389.813 614.709 389.674 614.465 389.489 614.229C389.309 613.987 389.063 613.788 388.75 613.632C388.438 613.476 388.038 613.398 387.55 613.398C386.882 613.398 386.326 613.552 385.881 613.859C385.441 614.162 385.221 614.548 385.221 615.017C385.221 615.434 385.372 615.763 385.675 616.004C385.978 616.246 386.452 616.447 387.096 616.608L388.715 617.006C389.69 617.242 390.417 617.605 390.895 618.092C391.373 618.575 391.613 619.198 391.613 619.96C391.613 620.585 391.433 621.144 391.073 621.636C390.718 622.129 390.221 622.517 389.581 622.801C388.942 623.085 388.199 623.227 387.351 623.227C386.239 623.227 385.318 622.986 384.588 622.503C383.859 622.02 383.398 621.314 383.203 620.386L384.794 619.989C384.946 620.576 385.232 621.016 385.654 621.31C386.08 621.603 386.636 621.75 387.323 621.75C388.104 621.75 388.724 621.584 389.184 621.253C389.648 620.917 389.88 620.514 389.88 620.045C389.88 619.667 389.747 619.349 389.482 619.094C389.217 618.833 388.81 618.639 388.26 618.511L386.442 618.085C385.443 617.848 384.709 617.482 384.24 616.984C383.776 616.482 383.544 615.855 383.544 615.102C383.544 614.487 383.717 613.942 384.063 613.469C384.413 612.995 384.889 612.624 385.49 612.354C386.096 612.084 386.783 611.949 387.55 611.949C388.63 611.949 389.477 612.186 390.093 612.659C390.713 613.133 391.153 613.758 391.414 614.534ZM398.88 612.091V613.511H393.227V612.091H398.88ZM394.874 609.477H396.55V619.875C396.55 620.348 396.619 620.704 396.756 620.94C396.898 621.172 397.078 621.329 397.296 621.409C397.519 621.485 397.753 621.523 397.999 621.523C398.184 621.523 398.335 621.513 398.454 621.494C398.572 621.471 398.667 621.452 398.738 621.438L399.079 622.943C398.965 622.986 398.807 623.028 398.603 623.071C398.399 623.118 398.141 623.142 397.829 623.142C397.355 623.142 396.891 623.04 396.437 622.837C395.987 622.633 395.613 622.323 395.315 621.906C395.021 621.49 394.874 620.964 394.874 620.33V609.477ZM401.401 623V612.091H403.021V613.739H403.134C403.333 613.199 403.693 612.761 404.214 612.425C404.735 612.089 405.322 611.92 405.975 611.92C406.098 611.92 406.252 611.923 406.437 611.928C406.621 611.932 406.761 611.939 406.856 611.949V613.653C406.799 613.639 406.669 613.618 406.465 613.589C406.266 613.556 406.056 613.54 405.833 613.54C405.303 613.54 404.829 613.651 404.413 613.874C404.001 614.091 403.674 614.394 403.433 614.783C403.196 615.166 403.077 615.604 403.077 616.097V623H401.401ZM415.718 618.54V612.091H417.394V623H415.718V621.153H415.604C415.348 621.707 414.951 622.179 414.411 622.567C413.871 622.95 413.189 623.142 412.365 623.142C411.684 623.142 411.078 622.993 410.547 622.695C410.017 622.392 409.6 621.937 409.297 621.331C408.994 620.72 408.843 619.951 408.843 619.023V612.091H410.519V618.909C410.519 619.705 410.741 620.339 411.186 620.812C411.636 621.286 412.209 621.523 412.905 621.523C413.322 621.523 413.746 621.416 414.176 621.203C414.612 620.99 414.977 620.663 415.27 620.223C415.569 619.783 415.718 619.222 415.718 618.54ZM420.464 623V612.091H422.14V623H420.464ZM420.549 610.614L422.282 607.318H424.242L422.026 610.614H420.549ZM429.329 623.227C428.42 623.227 427.618 622.998 426.922 622.538C426.225 622.074 425.681 621.421 425.288 620.578C424.895 619.731 424.699 618.729 424.699 617.574C424.699 616.428 424.895 615.434 425.288 614.591C425.681 613.748 426.228 613.097 426.929 612.638C427.629 612.179 428.439 611.949 429.358 611.949C430.068 611.949 430.629 612.067 431.041 612.304C431.458 612.536 431.775 612.801 431.993 613.099C432.215 613.393 432.388 613.634 432.511 613.824H432.653V608.455H434.329V623H432.71V621.324H432.511C432.388 621.523 432.213 621.774 431.985 622.077C431.758 622.375 431.434 622.643 431.012 622.879C430.591 623.111 430.03 623.227 429.329 623.227ZM429.556 621.722C430.229 621.722 430.797 621.546 431.261 621.196C431.725 620.841 432.078 620.351 432.319 619.726C432.561 619.096 432.681 618.369 432.681 617.545C432.681 616.731 432.563 616.018 432.326 615.408C432.09 614.792 431.739 614.314 431.275 613.973C430.811 613.627 430.238 613.455 429.556 613.455C428.846 613.455 428.254 613.637 427.781 614.001C427.312 614.361 426.959 614.851 426.723 615.472C426.491 616.087 426.375 616.778 426.375 617.545C426.375 618.322 426.493 619.027 426.73 619.662C426.971 620.292 427.326 620.794 427.795 621.168C428.269 621.537 428.856 621.722 429.556 621.722ZM442.064 623.227C441.079 623.227 440.215 622.993 439.471 622.524C438.733 622.055 438.155 621.4 437.738 620.557C437.326 619.714 437.12 618.729 437.12 617.602C437.12 616.466 437.326 615.474 437.738 614.626C438.155 613.779 438.733 613.121 439.471 612.652C440.215 612.183 441.079 611.949 442.064 611.949C443.048 611.949 443.91 612.183 444.649 612.652C445.392 613.121 445.97 613.779 446.382 614.626C446.798 615.474 447.007 616.466 447.007 617.602C447.007 618.729 446.798 619.714 446.382 620.557C445.97 621.4 445.392 622.055 444.649 622.524C443.91 622.993 443.048 623.227 442.064 623.227ZM442.064 621.722C442.812 621.722 443.427 621.53 443.91 621.146C444.393 620.763 444.751 620.259 444.983 619.634C445.215 619.009 445.331 618.331 445.331 617.602C445.331 616.873 445.215 616.194 444.983 615.564C444.751 614.934 444.393 614.425 443.91 614.037C443.427 613.649 442.812 613.455 442.064 613.455C441.315 613.455 440.7 613.649 440.217 614.037C439.734 614.425 439.377 614.934 439.145 615.564C438.913 616.194 438.797 616.873 438.797 617.602C438.797 618.331 438.913 619.009 439.145 619.634C439.377 620.259 439.734 620.763 440.217 621.146C440.7 621.53 441.315 621.722 442.064 621.722ZM457.293 614.534L455.787 614.96C455.692 614.709 455.553 614.465 455.368 614.229C455.188 613.987 454.942 613.788 454.629 613.632C454.317 613.476 453.917 613.398 453.429 613.398C452.761 613.398 452.205 613.552 451.76 613.859C451.32 614.162 451.099 614.548 451.099 615.017C451.099 615.434 451.251 615.763 451.554 616.004C451.857 616.246 452.33 616.447 452.974 616.608L454.594 617.006C455.569 617.242 456.296 617.605 456.774 618.092C457.252 618.575 457.491 619.198 457.491 619.96C457.491 620.585 457.312 621.144 456.952 621.636C456.597 622.129 456.099 622.517 455.46 622.801C454.821 623.085 454.078 623.227 453.23 623.227C452.117 623.227 451.196 622.986 450.467 622.503C449.738 622.02 449.277 621.314 449.082 620.386L450.673 619.989C450.825 620.576 451.111 621.016 451.533 621.31C451.959 621.603 452.515 621.75 453.202 621.75C453.983 621.75 454.603 621.584 455.062 621.253C455.527 620.917 455.759 620.514 455.759 620.045C455.759 619.667 455.626 619.349 455.361 619.094C455.096 618.833 454.688 618.639 454.139 618.511L452.321 618.085C451.322 617.848 450.588 617.482 450.119 616.984C449.655 616.482 449.423 615.855 449.423 615.102C449.423 614.487 449.596 613.942 449.942 613.469C450.292 612.995 450.768 612.624 451.369 612.354C451.975 612.084 452.662 611.949 453.429 611.949C454.509 611.949 455.356 612.186 455.972 612.659C456.592 613.133 457.032 613.758 457.293 614.534Z" fill="black"/>
<path d="M564.06 589.602V585.412L576.403 565.909H579.898V571.875H577.767L569.457 585.043V585.27H586.688V589.602H564.06ZM577.938 595V588.324L577.994 586.449V565.909H582.966V595H577.938ZM601.979 595.554C599.64 595.554 597.632 594.962 595.956 593.778C594.289 592.585 593.006 590.866 592.107 588.622C591.216 586.368 590.771 583.655 590.771 580.483C590.781 577.311 591.231 574.612 592.121 572.386C593.02 570.152 594.304 568.447 595.97 567.273C597.646 566.098 599.649 565.511 601.979 565.511C604.308 565.511 606.311 566.098 607.987 567.273C609.663 568.447 610.946 570.152 611.837 572.386C612.736 574.621 613.186 577.32 613.186 580.483C613.186 583.665 612.736 586.383 611.837 588.636C610.946 590.881 609.663 592.595 607.987 593.778C606.321 594.962 604.318 595.554 601.979 595.554ZM601.979 591.108C603.797 591.108 605.232 590.213 606.283 588.423C607.343 586.624 607.874 583.977 607.874 580.483C607.874 578.172 607.632 576.231 607.149 574.659C606.666 573.087 605.984 571.903 605.104 571.108C604.223 570.303 603.181 569.901 601.979 569.901C600.17 569.901 598.74 570.8 597.689 572.599C596.638 574.389 596.107 577.017 596.098 580.483C596.089 582.803 596.321 584.754 596.794 586.335C597.277 587.917 597.959 589.11 598.839 589.915C599.72 590.71 600.767 591.108 601.979 591.108ZM566.744 623.256C566.053 623.256 565.426 623.125 564.862 622.865C564.299 622.6 563.851 622.219 563.52 621.722C563.188 621.22 563.023 620.614 563.023 619.903C563.023 619.278 563.146 618.772 563.392 618.384C563.638 617.991 563.967 617.683 564.379 617.46C564.791 617.238 565.246 617.072 565.743 616.963C566.245 616.849 566.749 616.759 567.256 616.693C567.919 616.608 568.456 616.544 568.868 616.501C569.285 616.454 569.588 616.376 569.777 616.267C569.971 616.158 570.068 615.969 570.068 615.699V615.642C570.068 614.941 569.876 614.397 569.493 614.009C569.114 613.62 568.539 613.426 567.767 613.426C566.967 613.426 566.339 613.601 565.885 613.952C565.43 614.302 565.111 614.676 564.926 615.074L563.335 614.506C563.619 613.843 563.998 613.327 564.472 612.957C564.95 612.583 565.471 612.323 566.034 612.176C566.602 612.025 567.161 611.949 567.71 611.949C568.061 611.949 568.463 611.991 568.918 612.077C569.377 612.157 569.82 612.325 570.246 612.581C570.677 612.837 571.034 613.223 571.318 613.739C571.602 614.255 571.744 614.946 571.744 615.812V623H570.068V621.523H569.983C569.869 621.759 569.68 622.013 569.415 622.283C569.15 622.553 568.797 622.782 568.357 622.972C567.916 623.161 567.379 623.256 566.744 623.256ZM567 621.75C567.663 621.75 568.222 621.62 568.676 621.359C569.135 621.099 569.481 620.763 569.713 620.351C569.95 619.939 570.068 619.506 570.068 619.051V617.517C569.997 617.602 569.841 617.68 569.599 617.751C569.363 617.818 569.088 617.877 568.776 617.929C568.468 617.976 568.167 618.019 567.874 618.057C567.585 618.09 567.35 618.118 567.17 618.142C566.735 618.199 566.328 618.291 565.949 618.419C565.575 618.542 565.272 618.729 565.04 618.98C564.813 619.226 564.699 619.562 564.699 619.989C564.699 620.571 564.914 621.011 565.345 621.31C565.781 621.603 566.332 621.75 567 621.75ZM576.48 616.438V623H574.804V612.091H576.423V613.795H576.565C576.821 613.241 577.209 612.796 577.73 612.46C578.251 612.119 578.923 611.949 579.747 611.949C580.485 611.949 581.132 612.1 581.686 612.403C582.24 612.702 582.671 613.156 582.978 613.767C583.286 614.373 583.44 615.14 583.44 616.068V623H581.764V616.182C581.764 615.325 581.541 614.657 581.096 614.179C580.651 613.696 580.04 613.455 579.264 613.455C578.729 613.455 578.251 613.571 577.829 613.803C577.413 614.035 577.083 614.373 576.842 614.818C576.6 615.263 576.48 615.803 576.48 616.438ZM590.935 623.227C589.95 623.227 589.086 622.993 588.342 622.524C587.604 622.055 587.026 621.4 586.609 620.557C586.197 619.714 585.991 618.729 585.991 617.602C585.991 616.466 586.197 615.474 586.609 614.626C587.026 613.779 587.604 613.121 588.342 612.652C589.086 612.183 589.95 611.949 590.935 611.949C591.92 611.949 592.781 612.183 593.52 612.652C594.263 613.121 594.841 613.779 595.253 614.626C595.67 615.474 595.878 616.466 595.878 617.602C595.878 618.729 595.67 619.714 595.253 620.557C594.841 621.4 594.263 622.055 593.52 622.524C592.781 622.993 591.92 623.227 590.935 623.227ZM590.935 621.722C591.683 621.722 592.298 621.53 592.781 621.146C593.264 620.763 593.622 620.259 593.854 619.634C594.086 619.009 594.202 618.331 594.202 617.602C594.202 616.873 594.086 616.194 593.854 615.564C593.622 614.934 593.264 614.425 592.781 614.037C592.298 613.649 591.683 613.455 590.935 613.455C590.187 613.455 589.571 613.649 589.088 614.037C588.605 614.425 588.248 614.934 588.016 615.564C587.784 616.194 587.668 616.873 587.668 617.602C587.668 618.331 587.784 619.009 588.016 619.634C588.248 620.259 588.605 620.763 589.088 621.146C589.571 621.53 590.187 621.722 590.935 621.722ZM606.164 614.534L604.658 614.96C604.563 614.709 604.424 614.465 604.239 614.229C604.059 613.987 603.813 613.788 603.5 613.632C603.188 613.476 602.788 613.398 602.3 613.398C601.632 613.398 601.076 613.552 600.631 613.859C600.191 614.162 599.971 614.548 599.971 615.017C599.971 615.434 600.122 615.763 600.425 616.004C600.728 616.246 601.202 616.447 601.846 616.608L603.465 617.006C604.44 617.242 605.167 617.605 605.645 618.092C606.123 618.575 606.363 619.198 606.363 619.96C606.363 620.585 606.183 621.144 605.823 621.636C605.468 622.129 604.971 622.517 604.331 622.801C603.692 623.085 602.949 623.227 602.101 623.227C600.989 623.227 600.068 622.986 599.338 622.503C598.609 622.02 598.148 621.314 597.953 620.386L599.544 619.989C599.696 620.576 599.982 621.016 600.404 621.31C600.83 621.603 601.386 621.75 602.073 621.75C602.854 621.75 603.474 621.584 603.934 621.253C604.398 620.917 604.63 620.514 604.63 620.045C604.63 619.667 604.497 619.349 604.232 619.094C603.967 618.833 603.56 618.639 603.01 618.511L601.192 618.085C600.193 617.848 599.459 617.482 598.99 616.984C598.526 616.482 598.294 615.855 598.294 615.102C598.294 614.487 598.467 613.942 598.813 613.469C599.163 612.995 599.639 612.624 600.24 612.354C600.846 612.084 601.533 611.949 602.3 611.949C603.38 611.949 604.227 612.186 604.843 612.659C605.463 613.133 605.903 613.758 606.164 614.534ZM618.63 623.227C617.721 623.227 616.918 622.998 616.222 622.538C615.526 622.074 614.982 621.421 614.589 620.578C614.196 619.731 613.999 618.729 613.999 617.574C613.999 616.428 614.196 615.434 614.589 614.591C614.982 613.748 615.529 613.097 616.229 612.638C616.93 612.179 617.74 611.949 618.658 611.949C619.369 611.949 619.93 612.067 620.342 612.304C620.758 612.536 621.076 612.801 621.293 613.099C621.516 613.393 621.689 613.634 621.812 613.824H621.954V608.455H623.63V623H622.011V621.324H621.812C621.689 621.523 621.513 621.774 621.286 622.077C621.059 622.375 620.735 622.643 620.313 622.879C619.892 623.111 619.331 623.227 618.63 623.227ZM618.857 621.722C619.53 621.722 620.098 621.546 620.562 621.196C621.026 620.841 621.379 620.351 621.62 619.726C621.862 619.096 621.982 618.369 621.982 617.545C621.982 616.731 621.864 616.018 621.627 615.408C621.39 614.792 621.04 614.314 620.576 613.973C620.112 613.627 619.539 613.455 618.857 613.455C618.147 613.455 617.555 613.637 617.082 614.001C616.613 614.361 616.26 614.851 616.023 615.472C615.791 616.087 615.675 616.778 615.675 617.545C615.675 618.322 615.794 619.027 616.031 619.662C616.272 620.292 616.627 620.794 617.096 621.168C617.569 621.537 618.156 621.722 618.857 621.722ZM631.506 623.227C630.455 623.227 629.549 622.995 628.786 622.531C628.029 622.062 627.444 621.409 627.032 620.571C626.625 619.728 626.421 618.748 626.421 617.631C626.421 616.513 626.625 615.528 627.032 614.676C627.444 613.819 628.017 613.152 628.751 612.673C629.489 612.19 630.351 611.949 631.336 611.949C631.904 611.949 632.465 612.044 633.019 612.233C633.573 612.422 634.077 612.73 634.532 613.156C634.987 613.578 635.349 614.136 635.619 614.832C635.888 615.528 636.023 616.385 636.023 617.403V618.114H627.614V616.665H634.319C634.319 616.049 634.196 615.5 633.95 615.017C633.708 614.534 633.362 614.153 632.913 613.874C632.468 613.594 631.942 613.455 631.336 613.455C630.668 613.455 630.091 613.62 629.603 613.952C629.12 614.278 628.748 614.705 628.488 615.23C628.228 615.756 628.097 616.319 628.097 616.92V617.886C628.097 618.71 628.239 619.409 628.523 619.982C628.812 620.55 629.212 620.983 629.724 621.281C630.235 621.575 630.829 621.722 631.506 621.722C631.947 621.722 632.344 621.66 632.7 621.537C633.059 621.409 633.37 621.22 633.63 620.969C633.89 620.713 634.092 620.396 634.234 620.017L635.853 620.472C635.683 621.021 635.396 621.504 634.994 621.92C634.591 622.332 634.094 622.654 633.502 622.886C632.91 623.114 632.245 623.227 631.506 623.227ZM644.198 623V612.091H645.817V613.795H645.96C646.187 613.213 646.554 612.761 647.06 612.439C647.567 612.112 648.175 611.949 648.886 611.949C649.605 611.949 650.204 612.112 650.683 612.439C651.165 612.761 651.542 613.213 651.812 613.795H651.925C652.205 613.232 652.624 612.785 653.183 612.453C653.741 612.117 654.411 611.949 655.192 611.949C656.168 611.949 656.966 612.254 657.586 612.865C658.206 613.471 658.516 614.416 658.516 615.699V623H656.84V615.699C656.84 614.894 656.62 614.319 656.18 613.973C655.739 613.627 655.221 613.455 654.624 613.455C653.857 613.455 653.263 613.687 652.842 614.151C652.42 614.61 652.21 615.192 652.21 615.898V623H650.505V615.528C650.505 614.908 650.304 614.409 649.901 614.03C649.499 613.646 648.98 613.455 648.346 613.455C647.91 613.455 647.503 613.571 647.124 613.803C646.75 614.035 646.447 614.357 646.215 614.768C645.988 615.176 645.874 615.647 645.874 616.182V623H644.198ZM666.155 623.227C665.104 623.227 664.197 622.995 663.435 622.531C662.677 622.062 662.092 621.409 661.68 620.571C661.273 619.728 661.07 618.748 661.07 617.631C661.07 616.513 661.273 615.528 661.68 614.676C662.092 613.819 662.665 613.152 663.399 612.673C664.138 612.19 665 611.949 665.984 611.949C666.553 611.949 667.114 612.044 667.668 612.233C668.222 612.422 668.726 612.73 669.18 613.156C669.635 613.578 669.997 614.136 670.267 614.832C670.537 615.528 670.672 616.385 670.672 617.403V618.114H662.263V616.665H668.967C668.967 616.049 668.844 615.5 668.598 615.017C668.357 614.534 668.011 614.153 667.561 613.874C667.116 613.594 666.59 613.455 665.984 613.455C665.317 613.455 664.739 613.62 664.251 613.952C663.768 614.278 663.397 614.705 663.136 615.23C662.876 615.756 662.746 616.319 662.746 616.92V617.886C662.746 618.71 662.888 619.409 663.172 619.982C663.461 620.55 663.861 620.983 664.372 621.281C664.884 621.575 665.478 621.722 666.155 621.722C666.595 621.722 666.993 621.66 667.348 621.537C667.708 621.409 668.018 621.22 668.278 620.969C668.539 620.713 668.74 620.396 668.882 620.017L670.501 620.472C670.331 621.021 670.045 621.504 669.642 621.92C669.24 622.332 668.742 622.654 668.151 622.886C667.559 623.114 666.893 623.227 666.155 623.227ZM673.222 623V612.091H674.841V613.739H674.955C675.153 613.199 675.513 612.761 676.034 612.425C676.555 612.089 677.142 611.92 677.795 611.92C677.919 611.92 678.072 611.923 678.257 611.928C678.442 611.932 678.581 611.939 678.676 611.949V613.653C678.619 613.639 678.489 613.618 678.286 613.589C678.087 613.556 677.876 613.54 677.653 613.54C677.123 613.54 676.65 613.651 676.233 613.874C675.821 614.091 675.494 614.394 675.253 614.783C675.016 615.166 674.898 615.604 674.898 616.097V623H673.222ZM684.763 623.227C683.74 623.227 682.859 622.986 682.121 622.503C681.382 622.02 680.814 621.355 680.416 620.507C680.018 619.66 679.82 618.691 679.82 617.602C679.82 616.494 680.023 615.517 680.43 614.669C680.842 613.817 681.415 613.152 682.149 612.673C682.888 612.19 683.75 611.949 684.734 611.949C685.501 611.949 686.193 612.091 686.808 612.375C687.424 612.659 687.928 613.057 688.321 613.568C688.714 614.08 688.958 614.676 689.053 615.358H687.376C687.249 614.861 686.964 614.42 686.524 614.037C686.089 613.649 685.501 613.455 684.763 613.455C684.109 613.455 683.536 613.625 683.044 613.966C682.556 614.302 682.175 614.778 681.901 615.393C681.631 616.004 681.496 616.722 681.496 617.545C681.496 618.388 681.628 619.122 681.893 619.747C682.163 620.372 682.542 620.857 683.03 621.203C683.522 621.549 684.1 621.722 684.763 621.722C685.198 621.722 685.594 621.646 685.949 621.494C686.304 621.343 686.605 621.125 686.851 620.841C687.097 620.557 687.272 620.216 687.376 619.818H689.053C688.958 620.462 688.723 621.042 688.349 621.558C687.98 622.07 687.49 622.477 686.879 622.78C686.273 623.078 685.568 623.227 684.763 623.227ZM694.713 623.256C694.022 623.256 693.394 623.125 692.831 622.865C692.268 622.6 691.82 622.219 691.489 621.722C691.157 621.22 690.991 620.614 690.991 619.903C690.991 619.278 691.115 618.772 691.361 618.384C691.607 617.991 691.936 617.683 692.348 617.46C692.76 617.238 693.214 617.072 693.712 616.963C694.214 616.849 694.718 616.759 695.224 616.693C695.887 616.608 696.425 616.544 696.837 616.501C697.253 616.454 697.556 616.376 697.746 616.267C697.94 616.158 698.037 615.969 698.037 615.699V615.642C698.037 614.941 697.845 614.397 697.462 614.009C697.083 613.62 696.508 613.426 695.736 613.426C694.936 613.426 694.308 613.601 693.854 613.952C693.399 614.302 693.08 614.676 692.895 615.074L691.304 614.506C691.588 613.843 691.967 613.327 692.44 612.957C692.919 612.583 693.439 612.323 694.003 612.176C694.571 612.025 695.13 611.949 695.679 611.949C696.029 611.949 696.432 611.991 696.886 612.077C697.346 612.157 697.788 612.325 698.214 612.581C698.645 612.837 699.003 613.223 699.287 613.739C699.571 614.255 699.713 614.946 699.713 615.812V623H698.037V621.523H697.952C697.838 621.759 697.649 622.013 697.384 622.283C697.118 622.553 696.766 622.782 696.325 622.972C695.885 623.161 695.348 623.256 694.713 623.256ZM694.969 621.75C695.632 621.75 696.19 621.62 696.645 621.359C697.104 621.099 697.45 620.763 697.682 620.351C697.919 619.939 698.037 619.506 698.037 619.051V617.517C697.966 617.602 697.81 617.68 697.568 617.751C697.331 617.818 697.057 617.877 696.744 617.929C696.437 617.976 696.136 618.019 695.842 618.057C695.554 618.09 695.319 618.118 695.139 618.142C694.704 618.199 694.296 618.291 693.918 618.419C693.544 618.542 693.241 618.729 693.009 618.98C692.781 619.226 692.668 619.562 692.668 619.989C692.668 620.571 692.883 621.011 693.314 621.31C693.75 621.603 694.301 621.75 694.969 621.75ZM706.892 623.227C705.983 623.227 705.18 622.998 704.484 622.538C703.788 622.074 703.243 621.421 702.85 620.578C702.458 619.731 702.261 618.729 702.261 617.574C702.261 616.428 702.458 615.434 702.85 614.591C703.243 613.748 703.79 613.097 704.491 612.638C705.192 612.179 706.002 611.949 706.92 611.949C707.63 611.949 708.191 612.067 708.603 612.304C709.02 612.536 709.337 612.801 709.555 613.099C709.778 613.393 709.95 613.634 710.074 613.824H710.216V608.455H711.892V623H710.272V621.324H710.074C709.95 621.523 709.775 621.774 709.548 622.077C709.321 622.375 708.996 622.643 708.575 622.879C708.154 623.111 707.592 623.227 706.892 623.227ZM707.119 621.722C707.791 621.722 708.359 621.546 708.824 621.196C709.288 620.841 709.64 620.351 709.882 619.726C710.123 619.096 710.244 618.369 710.244 617.545C710.244 616.731 710.126 616.018 709.889 615.408C709.652 614.792 709.302 614.314 708.838 613.973C708.374 613.627 707.801 613.455 707.119 613.455C706.409 613.455 705.817 613.637 705.343 614.001C704.875 614.361 704.522 614.851 704.285 615.472C704.053 616.087 703.937 616.778 703.937 617.545C703.937 618.322 704.056 619.027 704.292 619.662C704.534 620.292 704.889 620.794 705.358 621.168C705.831 621.537 706.418 621.722 707.119 621.722ZM719.626 623.227C718.641 623.227 717.777 622.993 717.034 622.524C716.295 622.055 715.717 621.4 715.301 620.557C714.889 619.714 714.683 618.729 714.683 617.602C714.683 616.466 714.889 615.474 715.301 614.626C715.717 613.779 716.295 613.121 717.034 612.652C717.777 612.183 718.641 611.949 719.626 611.949C720.611 611.949 721.473 612.183 722.211 612.652C722.955 613.121 723.532 613.779 723.944 614.626C724.361 615.474 724.569 616.466 724.569 617.602C724.569 618.729 724.361 619.714 723.944 620.557C723.532 621.4 722.955 622.055 722.211 622.524C721.473 622.993 720.611 623.227 719.626 623.227ZM719.626 621.722C720.374 621.722 720.99 621.53 721.473 621.146C721.956 620.763 722.313 620.259 722.545 619.634C722.777 619.009 722.893 618.331 722.893 617.602C722.893 616.873 722.777 616.194 722.545 615.564C722.313 614.934 721.956 614.425 721.473 614.037C720.99 613.649 720.374 613.455 719.626 613.455C718.878 613.455 718.262 613.649 717.779 614.037C717.297 614.425 716.939 614.934 716.707 615.564C716.475 616.194 716.359 616.873 716.359 617.602C716.359 618.331 716.475 619.009 716.707 619.634C716.939 620.259 717.297 620.763 717.779 621.146C718.262 621.53 718.878 621.722 719.626 621.722ZM737.327 623.227C736.276 623.227 735.369 622.995 734.607 622.531C733.849 622.062 733.264 621.409 732.852 620.571C732.445 619.728 732.241 618.748 732.241 617.631C732.241 616.513 732.445 615.528 732.852 614.676C733.264 613.819 733.837 613.152 734.571 612.673C735.31 612.19 736.171 611.949 737.156 611.949C737.724 611.949 738.286 612.044 738.839 612.233C739.393 612.422 739.898 612.73 740.352 613.156C740.807 613.578 741.169 614.136 741.439 614.832C741.709 615.528 741.844 616.385 741.844 617.403V618.114H733.435V616.665H740.139C740.139 616.049 740.016 615.5 739.77 615.017C739.528 614.534 739.183 614.153 738.733 613.874C738.288 613.594 737.762 613.455 737.156 613.455C736.489 613.455 735.911 613.62 735.423 613.952C734.94 614.278 734.569 614.705 734.308 615.23C734.048 615.756 733.918 616.319 733.918 616.92V617.886C733.918 618.71 734.06 619.409 734.344 619.982C734.633 620.55 735.033 620.983 735.544 621.281C736.055 621.575 736.65 621.722 737.327 621.722C737.767 621.722 738.165 621.66 738.52 621.537C738.88 621.409 739.19 621.22 739.45 620.969C739.711 620.713 739.912 620.396 740.054 620.017L741.673 620.472C741.503 621.021 741.216 621.504 740.814 621.92C740.411 622.332 739.914 622.654 739.322 622.886C738.731 623.114 738.065 623.227 737.327 623.227ZM754.592 623.227C753.541 623.227 752.634 622.995 751.872 622.531C751.115 622.062 750.53 621.409 750.118 620.571C749.711 619.728 749.507 618.748 749.507 617.631C749.507 616.513 749.711 615.528 750.118 614.676C750.53 613.819 751.103 613.152 751.837 612.673C752.575 612.19 753.437 611.949 754.422 611.949C754.99 611.949 755.551 612.044 756.105 612.233C756.659 612.422 757.163 612.73 757.618 613.156C758.072 613.578 758.435 614.136 758.705 614.832C758.974 615.528 759.109 616.385 759.109 617.403V618.114H750.7V616.665H757.405C757.405 616.049 757.282 615.5 757.036 615.017C756.794 614.534 756.448 614.153 755.999 613.874C755.554 613.594 755.028 613.455 754.422 613.455C753.754 613.455 753.177 613.62 752.689 613.952C752.206 614.278 751.834 614.705 751.574 615.23C751.313 615.756 751.183 616.319 751.183 616.92V617.886C751.183 618.71 751.325 619.409 751.609 619.982C751.898 620.55 752.298 620.983 752.81 621.281C753.321 621.575 753.915 621.722 754.592 621.722C755.033 621.722 755.43 621.66 755.786 621.537C756.145 621.409 756.455 621.22 756.716 620.969C756.976 620.713 757.178 620.396 757.32 620.017L758.939 620.472C758.768 621.021 758.482 621.504 758.08 621.92C757.677 622.332 757.18 622.654 756.588 622.886C755.996 623.114 755.331 623.227 754.592 623.227ZM762.616 612.091L765.23 616.551L767.843 612.091H769.775L766.252 617.545L769.775 623H767.843L765.23 618.767L762.616 623H760.684L764.15 617.545L760.684 612.091H762.616ZM772.167 627.091V612.091H773.786V613.824H773.985C774.108 613.634 774.279 613.393 774.496 613.099C774.719 612.801 775.036 612.536 775.448 612.304C775.865 612.067 776.428 611.949 777.138 611.949C778.057 611.949 778.867 612.179 779.567 612.638C780.268 613.097 780.815 613.748 781.208 614.591C781.601 615.434 781.798 616.428 781.798 617.574C781.798 618.729 781.601 619.731 781.208 620.578C780.815 621.421 780.271 622.074 779.575 622.538C778.879 622.998 778.076 623.227 777.167 623.227C776.466 623.227 775.905 623.111 775.484 622.879C775.062 622.643 774.738 622.375 774.511 622.077C774.283 621.774 774.108 621.523 773.985 621.324H773.843V627.091H772.167ZM773.815 617.545C773.815 618.369 773.935 619.096 774.177 619.726C774.418 620.351 774.771 620.841 775.235 621.196C775.699 621.546 776.267 621.722 776.94 621.722C777.64 621.722 778.225 621.537 778.694 621.168C779.167 620.794 779.522 620.292 779.759 619.662C780.001 619.027 780.121 618.322 780.121 617.545C780.121 616.778 780.003 616.087 779.766 615.472C779.534 614.851 779.182 614.361 778.708 614.001C778.239 613.637 777.65 613.455 776.94 613.455C776.258 613.455 775.685 613.627 775.221 613.973C774.757 614.314 774.406 614.792 774.17 615.408C773.933 616.018 773.815 616.731 773.815 617.545ZM788.928 623.227C787.877 623.227 786.97 622.995 786.208 622.531C785.451 622.062 784.866 621.409 784.454 620.571C784.047 619.728 783.843 618.748 783.843 617.631C783.843 616.513 784.047 615.528 784.454 614.676C784.866 613.819 785.439 613.152 786.173 612.673C786.911 612.19 787.773 611.949 788.758 611.949C789.326 611.949 789.887 612.044 790.441 612.233C790.995 612.422 791.499 612.73 791.954 613.156C792.408 613.578 792.771 614.136 793.04 614.832C793.31 615.528 793.445 616.385 793.445 617.403V618.114H785.036V616.665H791.741C791.741 616.049 791.618 615.5 791.371 615.017C791.13 614.534 790.784 614.153 790.335 613.874C789.889 613.594 789.364 613.455 788.758 613.455C788.09 613.455 787.513 613.62 787.025 613.952C786.542 614.278 786.17 614.705 785.91 615.23C785.649 615.756 785.519 616.319 785.519 616.92V617.886C785.519 618.71 785.661 619.409 785.945 619.982C786.234 620.55 786.634 620.983 787.146 621.281C787.657 621.575 788.251 621.722 788.928 621.722C789.369 621.722 789.766 621.66 790.121 621.537C790.481 621.409 790.791 621.22 791.052 620.969C791.312 620.713 791.513 620.396 791.656 620.017L793.275 620.472C793.104 621.021 792.818 621.504 792.415 621.92C792.013 622.332 791.516 622.654 790.924 622.886C790.332 623.114 789.667 623.227 788.928 623.227ZM795.995 623V612.091H797.614V613.739H797.728C797.927 613.199 798.287 612.761 798.808 612.425C799.328 612.089 799.915 611.92 800.569 611.92C800.692 611.92 800.846 611.923 801.031 611.928C801.215 611.932 801.355 611.939 801.45 611.949V613.653C801.393 613.639 801.263 613.618 801.059 613.589C800.86 613.556 800.649 613.54 800.427 613.54C799.897 613.54 799.423 613.651 799.006 613.874C798.594 614.091 798.268 614.394 798.026 614.783C797.79 615.166 797.671 615.604 797.671 616.097V623H795.995ZM803.436 623V612.091H805.113V623H803.436ZM804.289 610.273C803.962 610.273 803.68 610.161 803.444 609.939C803.212 609.716 803.096 609.449 803.096 609.136C803.096 608.824 803.212 608.556 803.444 608.334C803.68 608.111 803.962 608 804.289 608C804.615 608 804.895 608.111 805.127 608.334C805.364 608.556 805.482 608.824 805.482 609.136C805.482 609.449 805.364 609.716 805.127 609.939C804.895 610.161 804.615 610.273 804.289 610.273ZM812.756 623.227C811.705 623.227 810.799 622.995 810.036 622.531C809.279 622.062 808.694 621.409 808.282 620.571C807.875 619.728 807.671 618.748 807.671 617.631C807.671 616.513 807.875 615.528 808.282 614.676C808.694 613.819 809.267 613.152 810.001 612.673C810.739 612.19 811.601 611.949 812.586 611.949C813.154 611.949 813.715 612.044 814.269 612.233C814.823 612.422 815.327 612.73 815.782 613.156C816.237 613.578 816.599 614.136 816.869 614.832C817.138 615.528 817.273 616.385 817.273 617.403V618.114H808.864V616.665H815.569C815.569 616.049 815.446 615.5 815.2 615.017C814.958 614.534 814.612 614.153 814.163 613.874C813.718 613.594 813.192 613.455 812.586 613.455C811.918 613.455 811.341 613.62 810.853 613.952C810.37 614.278 809.998 614.705 809.738 615.23C809.478 615.756 809.347 616.319 809.347 616.92V617.886C809.347 618.71 809.489 619.409 809.773 619.982C810.062 620.55 810.462 620.983 810.974 621.281C811.485 621.575 812.079 621.722 812.756 621.722C813.197 621.722 813.594 621.66 813.95 621.537C814.309 621.409 814.62 621.22 814.88 620.969C815.14 620.713 815.342 620.396 815.484 620.017L817.103 620.472C816.933 621.021 816.646 621.504 816.244 621.92C815.841 622.332 815.344 622.654 814.752 622.886C814.16 623.114 813.495 623.227 812.756 623.227ZM813.978 610.784L812.501 608.795L811.023 610.784H809.433V610.67L811.734 607.716H813.268L815.569 610.67V610.784H813.978ZM821.499 616.438V623H819.823V612.091H821.442V613.795H821.585C821.84 613.241 822.228 612.796 822.749 612.46C823.27 612.119 823.942 611.949 824.766 611.949C825.505 611.949 826.151 612.1 826.705 612.403C827.259 612.702 827.69 613.156 827.998 613.767C828.306 614.373 828.46 615.14 828.46 616.068V623H826.783V616.182C826.783 615.325 826.561 614.657 826.116 614.179C825.671 613.696 825.06 613.455 824.283 613.455C823.748 613.455 823.27 613.571 822.849 613.803C822.432 614.035 822.103 614.373 821.862 614.818C821.62 615.263 821.499 615.803 821.499 616.438ZM835.954 623.227C834.931 623.227 834.051 622.986 833.312 622.503C832.574 622.02 832.005 621.355 831.608 620.507C831.21 619.66 831.011 618.691 831.011 617.602C831.011 616.494 831.215 615.517 831.622 614.669C832.034 613.817 832.607 613.152 833.341 612.673C834.079 612.19 834.941 611.949 835.926 611.949C836.693 611.949 837.384 612.091 838 612.375C838.615 612.659 839.119 613.057 839.512 613.568C839.905 614.08 840.149 614.676 840.244 615.358H838.568C838.44 614.861 838.156 614.42 837.716 614.037C837.28 613.649 836.693 613.455 835.954 613.455C835.301 613.455 834.728 613.625 834.235 613.966C833.748 614.302 833.367 614.778 833.092 615.393C832.822 616.004 832.687 616.722 832.687 617.545C832.687 618.388 832.82 619.122 833.085 619.747C833.355 620.372 833.734 620.857 834.221 621.203C834.714 621.549 835.291 621.722 835.954 621.722C836.39 621.722 836.785 621.646 837.14 621.494C837.495 621.343 837.796 621.125 838.042 620.841C838.288 620.557 838.464 620.216 838.568 619.818H840.244C840.149 620.462 839.915 621.042 839.541 621.558C839.172 622.07 838.681 622.477 838.071 622.78C837.465 623.078 836.759 623.227 835.954 623.227ZM842.694 623V612.091H844.37V623H842.694ZM843.547 610.273C843.22 610.273 842.938 610.161 842.701 609.939C842.469 609.716 842.353 609.449 842.353 609.136C842.353 608.824 842.469 608.556 842.701 608.334C842.938 608.111 843.22 608 843.547 608C843.873 608 844.153 608.111 844.385 608.334C844.621 608.556 844.74 608.824 844.74 609.136C844.74 609.449 844.621 609.716 844.385 609.939C844.153 610.161 843.873 610.273 843.547 610.273ZM850.651 623.256C849.959 623.256 849.332 623.125 848.768 622.865C848.205 622.6 847.758 622.219 847.426 621.722C847.095 621.22 846.929 620.614 846.929 619.903C846.929 619.278 847.052 618.772 847.298 618.384C847.545 617.991 847.874 617.683 848.286 617.46C848.697 617.238 849.152 617.072 849.649 616.963C850.151 616.849 850.655 616.759 851.162 616.693C851.825 616.608 852.362 616.544 852.774 616.501C853.191 616.454 853.494 616.376 853.683 616.267C853.877 616.158 853.974 615.969 853.974 615.699V615.642C853.974 614.941 853.783 614.397 853.399 614.009C853.02 613.62 852.445 613.426 851.673 613.426C850.873 613.426 850.246 613.601 849.791 613.952C849.337 614.302 849.017 614.676 848.832 615.074L847.241 614.506C847.526 613.843 847.904 613.327 848.378 612.957C848.856 612.583 849.377 612.323 849.94 612.176C850.509 612.025 851.067 611.949 851.616 611.949C851.967 611.949 852.369 611.991 852.824 612.077C853.283 612.157 853.726 612.325 854.152 612.581C854.583 612.837 854.94 613.223 855.224 613.739C855.509 614.255 855.651 614.946 855.651 615.812V623H853.974V621.523H853.889C853.776 621.759 853.586 622.013 853.321 622.283C853.056 622.553 852.703 622.782 852.263 622.972C851.822 623.161 851.285 623.256 850.651 623.256ZM850.906 621.75C851.569 621.75 852.128 621.62 852.582 621.359C853.042 621.099 853.387 620.763 853.619 620.351C853.856 619.939 853.974 619.506 853.974 619.051V617.517C853.903 617.602 853.747 617.68 853.506 617.751C853.269 617.818 852.994 617.877 852.682 617.929C852.374 617.976 852.073 618.019 851.78 618.057C851.491 618.09 851.257 618.118 851.077 618.142C850.641 618.199 850.234 618.291 849.855 618.419C849.481 618.542 849.178 618.729 848.946 618.98C848.719 619.226 848.605 619.562 848.605 619.989C848.605 620.571 848.821 621.011 849.251 621.31C849.687 621.603 850.239 621.75 850.906 621.75Z" fill="black"/>
<path d="M1017.59 595V591.193L1027.68 581.293C1028.65 580.317 1029.46 579.451 1030.1 578.693C1030.74 577.936 1031.23 577.202 1031.55 576.491C1031.87 575.781 1032.03 575.024 1032.03 574.219C1032.03 573.3 1031.82 572.514 1031.41 571.861C1030.99 571.198 1030.42 570.687 1029.69 570.327C1028.96 569.967 1028.13 569.787 1027.2 569.787C1026.25 569.787 1025.41 569.986 1024.69 570.384C1023.97 570.772 1023.41 571.326 1023.01 572.045C1022.62 572.765 1022.43 573.622 1022.43 574.616H1017.41C1017.41 572.77 1017.84 571.165 1018.68 569.801C1019.52 568.437 1020.68 567.382 1022.16 566.634C1023.65 565.885 1025.35 565.511 1027.27 565.511C1029.22 565.511 1030.94 565.876 1032.41 566.605C1033.89 567.334 1035.04 568.333 1035.85 569.602C1036.68 570.871 1037.09 572.32 1037.09 573.949C1037.09 575.038 1036.88 576.108 1036.46 577.159C1036.05 578.21 1035.31 579.375 1034.26 580.653C1033.22 581.932 1031.76 583.48 1029.87 585.298L1024.86 590.398V590.597H1037.53V595H1017.59ZM1048.52 591.023L1048.34 592.585C1048.21 593.778 1047.97 594.991 1047.63 596.222C1047.3 597.462 1046.95 598.603 1046.58 599.645C1046.21 600.687 1045.91 601.506 1045.68 602.102H1042.22C1042.35 601.525 1042.53 600.739 1042.76 599.744C1042.99 598.75 1043.22 597.633 1043.44 596.392C1043.66 595.152 1043.8 593.892 1043.88 592.614L1043.98 591.023H1048.52ZM1063.85 595.554C1061.51 595.554 1059.5 594.962 1057.82 593.778C1056.16 592.585 1054.87 590.866 1053.97 588.622C1053.08 586.368 1052.64 583.655 1052.64 580.483C1052.65 577.311 1053.1 574.612 1053.99 572.386C1054.89 570.152 1056.17 568.447 1057.84 567.273C1059.51 566.098 1061.52 565.511 1063.85 565.511C1066.18 565.511 1068.18 566.098 1069.85 567.273C1071.53 568.447 1072.81 570.152 1073.7 572.386C1074.6 574.621 1075.05 577.32 1075.05 580.483C1075.05 583.665 1074.6 586.383 1073.7 588.636C1072.81 590.881 1071.53 592.595 1069.85 593.778C1068.19 594.962 1066.18 595.554 1063.85 595.554ZM1063.85 591.108C1065.66 591.108 1067.1 590.213 1068.15 588.423C1069.21 586.624 1069.74 583.977 1069.74 580.483C1069.74 578.172 1069.5 576.231 1069.02 574.659C1068.53 573.087 1067.85 571.903 1066.97 571.108C1066.09 570.303 1065.05 569.901 1063.85 569.901C1062.04 569.901 1060.61 570.8 1059.56 572.599C1058.5 574.389 1057.97 577.017 1057.97 580.483C1057.96 582.803 1058.19 584.754 1058.66 586.335C1059.14 587.917 1059.83 589.11 1060.71 589.915C1061.59 590.71 1062.63 591.108 1063.85 591.108ZM1090.53 595.554C1088.19 595.554 1086.18 594.962 1084.5 593.778C1082.84 592.585 1081.55 590.866 1080.65 588.622C1079.76 586.368 1079.32 583.655 1079.32 580.483C1079.33 577.311 1079.78 574.612 1080.67 572.386C1081.57 570.152 1082.85 568.447 1084.52 567.273C1086.19 566.098 1088.2 565.511 1090.53 565.511C1092.86 565.511 1094.86 566.098 1096.53 567.273C1098.21 568.447 1099.49 570.152 1100.38 572.386C1101.28 574.621 1101.73 577.32 1101.73 580.483C1101.73 583.665 1101.28 586.383 1100.38 588.636C1099.49 590.881 1098.21 592.595 1096.53 593.778C1094.87 594.962 1092.86 595.554 1090.53 595.554ZM1090.53 591.108C1092.34 591.108 1093.78 590.213 1094.83 588.423C1095.89 586.624 1096.42 583.977 1096.42 580.483C1096.42 578.172 1096.18 576.231 1095.7 574.659C1095.21 573.087 1094.53 571.903 1093.65 571.108C1092.77 570.303 1091.73 569.901 1090.53 569.901C1088.72 569.901 1087.29 570.8 1086.24 572.599C1085.18 574.389 1084.65 577.017 1084.64 580.483C1084.64 582.803 1084.87 584.754 1085.34 586.335C1085.82 587.917 1086.51 589.11 1087.39 589.915C1088.27 590.71 1089.31 591.108 1090.53 591.108ZM1117.21 595.554C1114.87 595.554 1112.86 594.962 1111.18 593.778C1109.52 592.585 1108.23 590.866 1107.33 588.622C1106.44 586.368 1106 583.655 1106 580.483C1106.01 577.311 1106.46 574.612 1107.35 572.386C1108.25 570.152 1109.53 568.447 1111.2 567.273C1112.87 566.098 1114.88 565.511 1117.21 565.511C1119.53 565.511 1121.54 566.098 1123.21 567.273C1124.89 568.447 1126.17 570.152 1127.06 572.386C1127.96 574.621 1128.41 577.32 1128.41 580.483C1128.41 583.665 1127.96 586.383 1127.06 588.636C1126.17 590.881 1124.89 592.595 1123.21 593.778C1121.55 594.962 1119.54 595.554 1117.21 595.554ZM1117.21 591.108C1119.02 591.108 1120.46 590.213 1121.51 588.423C1122.57 586.624 1123.1 583.977 1123.1 580.483C1123.1 578.172 1122.86 576.231 1122.38 574.659C1121.89 573.087 1121.21 571.903 1120.33 571.108C1119.45 570.303 1118.41 569.901 1117.21 569.901C1115.4 569.901 1113.97 570.8 1112.92 572.599C1111.86 574.389 1111.33 577.017 1111.32 580.483C1111.32 582.803 1111.55 584.754 1112.02 586.335C1112.5 587.917 1113.19 589.11 1114.07 589.915C1114.95 590.71 1115.99 591.108 1117.21 591.108ZM1138.09 591.023L1137.91 592.585C1137.78 593.778 1137.54 594.991 1137.2 596.222C1136.87 597.462 1136.52 598.603 1136.15 599.645C1135.78 600.687 1135.48 601.506 1135.25 602.102H1131.79C1131.92 601.525 1132.1 600.739 1132.33 599.744C1132.56 598.75 1132.79 597.633 1133.01 596.392C1133.23 595.152 1133.37 593.892 1133.45 592.614L1133.55 591.023H1138.09ZM1153.42 595.554C1151.08 595.554 1149.07 594.962 1147.39 593.778C1145.73 592.585 1144.44 590.866 1143.54 588.622C1142.65 586.368 1142.21 583.655 1142.21 580.483C1142.22 577.311 1142.67 574.612 1143.56 572.386C1144.46 570.152 1145.74 568.447 1147.41 567.273C1149.08 566.098 1151.09 565.511 1153.42 565.511C1155.75 565.511 1157.75 566.098 1159.42 567.273C1161.1 568.447 1162.38 570.152 1163.27 572.386C1164.17 574.621 1164.62 577.32 1164.62 580.483C1164.62 583.665 1164.17 586.383 1163.27 588.636C1162.38 590.881 1161.1 592.595 1159.42 593.778C1157.76 594.962 1155.76 595.554 1153.42 595.554ZM1153.42 591.108C1155.23 591.108 1156.67 590.213 1157.72 588.423C1158.78 586.624 1159.31 583.977 1159.31 580.483C1159.31 578.172 1159.07 576.231 1158.59 574.659C1158.1 573.087 1157.42 571.903 1156.54 571.108C1155.66 570.303 1154.62 569.901 1153.42 569.901C1151.61 569.901 1150.18 570.8 1149.13 572.599C1148.08 574.389 1147.54 577.017 1147.54 580.483C1147.53 582.803 1147.76 584.754 1148.23 586.335C1148.71 587.917 1149.4 589.11 1150.28 589.915C1151.16 590.71 1152.2 591.108 1153.42 591.108ZM1180.1 595.554C1177.76 595.554 1175.75 594.962 1174.07 593.778C1172.41 592.585 1171.12 590.866 1170.22 588.622C1169.33 586.368 1168.89 583.655 1168.89 580.483C1168.9 577.311 1169.35 574.612 1170.24 572.386C1171.14 570.152 1172.42 568.447 1174.09 567.273C1175.76 566.098 1177.77 565.511 1180.1 565.511C1182.43 565.511 1184.43 566.098 1186.1 567.273C1187.78 568.447 1189.06 570.152 1189.95 572.386C1190.85 574.621 1191.3 577.32 1191.3 580.483C1191.3 583.665 1190.85 586.383 1189.95 588.636C1189.06 590.881 1187.78 592.595 1186.1 593.778C1184.44 594.962 1182.43 595.554 1180.1 595.554ZM1180.1 591.108C1181.91 591.108 1183.35 590.213 1184.4 588.423C1185.46 586.624 1185.99 583.977 1185.99 580.483C1185.99 578.172 1185.75 576.231 1185.27 574.659C1184.78 573.087 1184.1 571.903 1183.22 571.108C1182.34 570.303 1181.3 569.901 1180.1 569.901C1178.29 569.901 1176.86 570.8 1175.81 572.599C1174.75 574.389 1174.22 577.017 1174.22 580.483C1174.21 582.803 1174.44 584.754 1174.91 586.335C1175.39 587.917 1176.08 589.11 1176.96 589.915C1177.84 590.71 1178.88 591.108 1180.1 591.108ZM1206.78 595.554C1204.44 595.554 1202.43 594.962 1200.75 593.778C1199.09 592.585 1197.8 590.866 1196.9 588.622C1196.01 586.368 1195.57 583.655 1195.57 580.483C1195.58 577.311 1196.03 574.612 1196.92 572.386C1197.82 570.152 1199.1 568.447 1200.77 567.273C1202.44 566.098 1204.45 565.511 1206.78 565.511C1209.11 565.511 1211.11 566.098 1212.78 567.273C1214.46 568.447 1215.74 570.152 1216.63 572.386C1217.53 574.621 1217.98 577.32 1217.98 580.483C1217.98 583.665 1217.53 586.383 1216.63 588.636C1215.74 590.881 1214.46 592.595 1212.78 593.778C1211.12 594.962 1209.11 595.554 1206.78 595.554ZM1206.78 591.108C1208.59 591.108 1210.03 590.213 1211.08 588.423C1212.14 586.624 1212.67 583.977 1212.67 580.483C1212.67 578.172 1212.43 576.231 1211.95 574.659C1211.46 573.087 1210.78 571.903 1209.9 571.108C1209.02 570.303 1207.98 569.901 1206.78 569.901C1204.97 569.901 1203.54 570.8 1202.49 572.599C1201.43 574.389 1200.9 577.017 1200.89 580.483C1200.89 582.803 1201.12 584.754 1201.59 586.335C1202.07 587.917 1202.76 589.11 1203.64 589.915C1204.52 590.71 1205.56 591.108 1206.78 591.108ZM1016.53 623V612.091H1018.15V613.795H1018.3C1018.52 613.213 1018.89 612.761 1019.4 612.439C1019.9 612.112 1020.51 611.949 1021.22 611.949C1021.94 611.949 1022.54 612.112 1023.02 612.439C1023.5 612.761 1023.88 613.213 1024.15 613.795H1024.26C1024.54 613.232 1024.96 612.785 1025.52 612.453C1026.08 612.117 1026.75 611.949 1027.53 611.949C1028.5 611.949 1029.3 612.254 1029.92 612.865C1030.54 613.471 1030.85 614.416 1030.85 615.699V623H1029.18V615.699C1029.18 614.894 1028.96 614.319 1028.52 613.973C1028.08 613.627 1027.56 613.455 1026.96 613.455C1026.19 613.455 1025.6 613.687 1025.18 614.151C1024.76 614.61 1024.55 615.192 1024.55 615.898V623H1022.84V615.528C1022.84 614.908 1022.64 614.409 1022.24 614.03C1021.83 613.646 1021.32 613.455 1020.68 613.455C1020.25 613.455 1019.84 613.571 1019.46 613.803C1019.09 614.035 1018.78 614.357 1018.55 614.768C1018.32 615.176 1018.21 615.647 1018.21 616.182V623H1016.53ZM1033.38 615.727V614.619L1036.7 611.665C1037.03 611.371 1037.31 611.108 1037.53 610.876C1037.75 610.644 1037.92 610.42 1038.04 610.202C1038.15 609.984 1038.21 609.752 1038.21 609.506C1038.21 609.08 1038.04 608.741 1037.72 608.49C1037.39 608.239 1036.99 608.114 1036.5 608.114C1035.99 608.114 1035.58 608.251 1035.27 608.526C1034.95 608.795 1034.8 609.151 1034.8 609.591H1033.32C1033.32 608.781 1033.62 608.13 1034.22 607.638C1034.82 607.141 1035.59 606.892 1036.53 606.892C1037.16 606.892 1037.7 607.006 1038.18 607.233C1038.65 607.455 1039.02 607.763 1039.29 608.156C1039.55 608.545 1039.68 608.985 1039.68 609.477C1039.68 609.866 1039.61 610.225 1039.45 610.557C1039.29 610.888 1039.05 611.232 1038.72 611.587C1038.39 611.942 1037.96 612.347 1037.44 612.801L1035.59 614.42V614.477H1039.94V615.727H1033.38ZM1052.53 623.227C1051.48 623.227 1050.58 622.995 1049.81 622.531C1049.06 622.062 1048.47 621.409 1048.06 620.571C1047.65 619.728 1047.45 618.748 1047.45 617.631C1047.45 616.513 1047.65 615.528 1048.06 614.676C1048.47 613.819 1049.04 613.152 1049.78 612.673C1050.52 612.19 1051.38 611.949 1052.36 611.949C1052.93 611.949 1053.49 612.044 1054.05 612.233C1054.6 612.422 1055.1 612.73 1055.56 613.156C1056.01 613.578 1056.38 614.136 1056.65 614.832C1056.92 615.528 1057.05 616.385 1057.05 617.403V618.114H1048.64V616.665H1055.35C1055.35 616.049 1055.22 615.5 1054.98 615.017C1054.74 614.534 1054.39 614.153 1053.94 613.874C1053.49 613.594 1052.97 613.455 1052.36 613.455C1051.7 613.455 1051.12 613.62 1050.63 613.952C1050.15 614.278 1049.78 614.705 1049.52 615.23C1049.25 615.756 1049.12 616.319 1049.12 616.92V617.886C1049.12 618.71 1049.27 619.409 1049.55 619.982C1049.84 620.55 1050.24 620.983 1050.75 621.281C1051.26 621.575 1051.86 621.722 1052.53 621.722C1052.97 621.722 1053.37 621.66 1053.73 621.537C1054.09 621.409 1054.4 621.22 1054.66 620.969C1054.92 620.713 1055.12 620.396 1055.26 620.017L1056.88 620.472C1056.71 621.021 1056.42 621.504 1056.02 621.92C1055.62 622.332 1055.12 622.654 1054.53 622.886C1053.94 623.114 1053.27 623.227 1052.53 623.227ZM1059.6 623V612.091H1061.22V613.795H1061.36C1061.59 613.213 1061.96 612.761 1062.46 612.439C1062.97 612.112 1063.58 611.949 1064.29 611.949C1065.01 611.949 1065.61 612.112 1066.08 612.439C1066.57 612.761 1066.94 613.213 1067.21 613.795H1067.33C1067.61 613.232 1068.03 612.785 1068.58 612.453C1069.14 612.117 1069.81 611.949 1070.59 611.949C1071.57 611.949 1072.37 612.254 1072.99 612.865C1073.61 613.471 1073.92 614.416 1073.92 615.699V623H1072.24V615.699C1072.24 614.894 1072.02 614.319 1071.58 613.973C1071.14 613.627 1070.62 613.455 1070.03 613.455C1069.26 613.455 1068.67 613.687 1068.24 614.151C1067.82 614.61 1067.61 615.192 1067.61 615.898V623H1065.91V615.528C1065.91 614.908 1065.71 614.409 1065.3 614.03C1064.9 613.646 1064.38 613.455 1063.75 613.455C1063.31 613.455 1062.91 613.571 1062.53 613.803C1062.15 614.035 1061.85 614.357 1061.62 614.768C1061.39 615.176 1061.28 615.647 1061.28 616.182V623H1059.6ZM1082.61 627.091V612.091H1084.23V613.824H1084.43C1084.55 613.634 1084.72 613.393 1084.94 613.099C1085.16 612.801 1085.48 612.536 1085.89 612.304C1086.31 612.067 1086.87 611.949 1087.58 611.949C1088.5 611.949 1089.31 612.179 1090.01 612.638C1090.71 613.097 1091.26 613.748 1091.65 614.591C1092.04 615.434 1092.24 616.428 1092.24 617.574C1092.24 618.729 1092.04 619.731 1091.65 620.578C1091.26 621.421 1090.71 622.074 1090.02 622.538C1089.32 622.998 1088.52 623.227 1087.61 623.227C1086.91 623.227 1086.35 623.111 1085.93 622.879C1085.5 622.643 1085.18 622.375 1084.95 622.077C1084.72 621.774 1084.55 621.523 1084.43 621.324H1084.28V627.091H1082.61ZM1084.26 617.545C1084.26 618.369 1084.38 619.096 1084.62 619.726C1084.86 620.351 1085.21 620.841 1085.68 621.196C1086.14 621.546 1086.71 621.722 1087.38 621.722C1088.08 621.722 1088.67 621.537 1089.14 621.168C1089.61 620.794 1089.96 620.292 1090.2 619.662C1090.44 619.027 1090.56 618.322 1090.56 617.545C1090.56 616.778 1090.44 616.087 1090.21 615.472C1089.98 614.851 1089.62 614.361 1089.15 614.001C1088.68 613.637 1088.09 613.455 1087.38 613.455C1086.7 613.455 1086.13 613.627 1085.66 613.973C1085.2 614.314 1084.85 614.792 1084.61 615.408C1084.37 616.018 1084.26 616.731 1084.26 617.545ZM1094.8 623V612.091H1096.42V613.739H1096.53C1096.73 613.199 1097.09 612.761 1097.61 612.425C1098.13 612.089 1098.72 611.92 1099.37 611.92C1099.49 611.92 1099.65 611.923 1099.83 611.928C1100.02 611.932 1100.16 611.939 1100.25 611.949V613.653C1100.19 613.639 1100.06 613.618 1099.86 613.589C1099.66 613.556 1099.45 613.54 1099.23 613.54C1098.7 613.54 1098.22 613.651 1097.81 613.874C1097.4 614.091 1097.07 614.394 1096.83 614.783C1096.59 615.166 1096.47 615.604 1096.47 616.097V623H1094.8ZM1106.34 623.227C1105.35 623.227 1104.49 622.993 1103.74 622.524C1103.01 622.055 1102.43 621.4 1102.01 620.557C1101.6 619.714 1101.39 618.729 1101.39 617.602C1101.39 616.466 1101.6 615.474 1102.01 614.626C1102.43 613.779 1103.01 613.121 1103.74 612.652C1104.49 612.183 1105.35 611.949 1106.34 611.949C1107.32 611.949 1108.18 612.183 1108.92 612.652C1109.67 613.121 1110.24 613.779 1110.66 614.626C1111.07 615.474 1111.28 616.466 1111.28 617.602C1111.28 618.729 1111.07 619.714 1110.66 620.557C1110.24 621.4 1109.67 622.055 1108.92 622.524C1108.18 622.993 1107.32 623.227 1106.34 623.227ZM1106.34 621.722C1107.09 621.722 1107.7 621.53 1108.18 621.146C1108.67 620.763 1109.02 620.259 1109.26 619.634C1109.49 619.009 1109.6 618.331 1109.6 617.602C1109.6 616.873 1109.49 616.194 1109.26 615.564C1109.02 614.934 1108.67 614.425 1108.18 614.037C1107.7 613.649 1107.09 613.455 1106.34 613.455C1105.59 613.455 1104.97 613.649 1104.49 614.037C1104.01 614.425 1103.65 614.934 1103.42 615.564C1103.19 616.194 1103.07 616.873 1103.07 617.602C1103.07 618.331 1103.19 619.009 1103.42 619.634C1103.65 620.259 1104.01 620.763 1104.49 621.146C1104.97 621.53 1105.59 621.722 1106.34 621.722ZM1113.84 612.091H1115.51V623.795C1115.51 624.468 1115.4 625.05 1115.17 625.543C1114.94 626.035 1114.59 626.416 1114.13 626.686C1113.67 626.956 1113.09 627.091 1112.39 627.091C1112.33 627.091 1112.28 627.091 1112.22 627.091C1112.16 627.091 1112.11 627.091 1112.05 627.091V625.528C1112.11 625.528 1112.16 625.528 1112.21 625.528C1112.25 625.528 1112.3 625.528 1112.36 625.528C1112.87 625.528 1113.25 625.377 1113.48 625.074C1113.72 624.776 1113.84 624.349 1113.84 623.795V612.091ZM1114.66 610.273C1114.34 610.273 1114.05 610.161 1113.82 609.939C1113.59 609.716 1113.47 609.449 1113.47 609.136C1113.47 608.824 1113.59 608.556 1113.82 608.334C1114.05 608.111 1114.34 608 1114.66 608C1114.99 608 1115.27 608.111 1115.5 608.334C1115.74 608.556 1115.86 608.824 1115.86 609.136C1115.86 609.449 1115.74 609.716 1115.5 609.939C1115.27 610.161 1114.99 610.273 1114.66 610.273ZM1123.16 623.227C1122.11 623.227 1121.2 622.995 1120.44 622.531C1119.68 622.062 1119.1 621.409 1118.68 620.571C1118.28 619.728 1118.07 618.748 1118.07 617.631C1118.07 616.513 1118.28 615.528 1118.68 614.676C1119.1 613.819 1119.67 613.152 1120.4 612.673C1121.14 612.19 1122 611.949 1122.99 611.949C1123.56 611.949 1124.12 612.044 1124.67 612.233C1125.23 612.422 1125.73 612.73 1126.18 613.156C1126.64 613.578 1127 614.136 1127.27 614.832C1127.54 615.528 1127.68 616.385 1127.68 617.403V618.114H1119.27V616.665H1125.97C1125.97 616.049 1125.85 615.5 1125.6 615.017C1125.36 614.534 1125.01 614.153 1124.56 613.874C1124.12 613.594 1123.59 613.455 1122.99 613.455C1122.32 613.455 1121.74 613.62 1121.26 613.952C1120.77 614.278 1120.4 614.705 1120.14 615.23C1119.88 615.756 1119.75 616.319 1119.75 616.92V617.886C1119.75 618.71 1119.89 619.409 1120.18 619.982C1120.46 620.55 1120.86 620.983 1121.38 621.281C1121.89 621.575 1122.48 621.722 1123.16 621.722C1123.6 621.722 1124 621.66 1124.35 621.537C1124.71 621.409 1125.02 621.22 1125.28 620.969C1125.54 620.713 1125.74 620.396 1125.89 620.017L1127.51 620.472C1127.33 621.021 1127.05 621.504 1126.65 621.92C1126.24 622.332 1125.75 622.654 1125.15 622.886C1124.56 623.114 1123.9 623.227 1123.16 623.227ZM1134.97 612.091V613.511H1129.32V612.091H1134.97ZM1130.96 609.477H1132.64V619.875C1132.64 620.348 1132.71 620.704 1132.85 620.94C1132.99 621.172 1133.17 621.329 1133.39 621.409C1133.61 621.485 1133.84 621.523 1134.09 621.523C1134.27 621.523 1134.43 621.513 1134.54 621.494C1134.66 621.471 1134.76 621.452 1134.83 621.438L1135.17 622.943C1135.06 622.986 1134.9 623.028 1134.69 623.071C1134.49 623.118 1134.23 623.142 1133.92 623.142C1133.45 623.142 1132.98 623.04 1132.53 622.837C1132.08 622.633 1131.7 622.323 1131.4 621.906C1131.11 621.49 1130.96 620.964 1130.96 620.33V609.477ZM1141.81 623.227C1140.82 623.227 1139.96 622.993 1139.21 622.524C1138.47 622.055 1137.9 621.4 1137.48 620.557C1137.07 619.714 1136.86 618.729 1136.86 617.602C1136.86 616.466 1137.07 615.474 1137.48 614.626C1137.9 613.779 1138.47 613.121 1139.21 612.652C1139.96 612.183 1140.82 611.949 1141.81 611.949C1142.79 611.949 1143.65 612.183 1144.39 612.652C1145.13 613.121 1145.71 613.779 1146.12 614.626C1146.54 615.474 1146.75 616.466 1146.75 617.602C1146.75 618.729 1146.54 619.714 1146.12 620.557C1145.71 621.4 1145.13 622.055 1144.39 622.524C1143.65 622.993 1142.79 623.227 1141.81 623.227ZM1141.81 621.722C1142.55 621.722 1143.17 621.53 1143.65 621.146C1144.14 620.763 1144.49 620.259 1144.72 619.634C1144.96 619.009 1145.07 618.331 1145.07 617.602C1145.07 616.873 1144.96 616.194 1144.72 615.564C1144.49 614.934 1144.14 614.425 1143.65 614.037C1143.17 613.649 1142.55 613.455 1141.81 613.455C1141.06 613.455 1140.44 613.649 1139.96 614.037C1139.48 614.425 1139.12 614.934 1138.89 615.564C1138.65 616.194 1138.54 616.873 1138.54 617.602C1138.54 618.331 1138.65 619.009 1138.89 619.634C1139.12 620.259 1139.48 620.763 1139.96 621.146C1140.44 621.53 1141.06 621.722 1141.81 621.722ZM1157.03 614.534L1155.53 614.96C1155.43 614.709 1155.29 614.465 1155.11 614.229C1154.93 613.987 1154.68 613.788 1154.37 613.632C1154.06 613.476 1153.66 613.398 1153.17 613.398C1152.5 613.398 1151.95 613.552 1151.5 613.859C1151.06 614.162 1150.84 614.548 1150.84 615.017C1150.84 615.434 1150.99 615.763 1151.3 616.004C1151.6 616.246 1152.07 616.447 1152.72 616.608L1154.34 617.006C1155.31 617.242 1156.04 617.605 1156.52 618.092C1156.99 618.575 1157.23 619.198 1157.23 619.96C1157.23 620.585 1157.05 621.144 1156.69 621.636C1156.34 622.129 1155.84 622.517 1155.2 622.801C1154.56 623.085 1153.82 623.227 1152.97 623.227C1151.86 623.227 1150.94 622.986 1150.21 622.503C1149.48 622.02 1149.02 621.314 1148.82 620.386L1150.42 619.989C1150.57 620.576 1150.85 621.016 1151.27 621.31C1151.7 621.603 1152.26 621.75 1152.94 621.75C1153.73 621.75 1154.35 621.584 1154.8 621.253C1155.27 620.917 1155.5 620.514 1155.5 620.045C1155.5 619.667 1155.37 619.349 1155.1 619.094C1154.84 618.833 1154.43 618.639 1153.88 618.511L1152.06 618.085C1151.06 617.848 1150.33 617.482 1149.86 616.984C1149.4 616.482 1149.17 615.855 1149.17 615.102C1149.17 614.487 1149.34 613.942 1149.68 613.469C1150.03 612.995 1150.51 612.624 1151.11 612.354C1151.72 612.084 1152.4 611.949 1153.17 611.949C1154.25 611.949 1155.1 612.186 1155.71 612.659C1156.33 613.133 1156.77 613.758 1157.03 614.534ZM1169.81 623.227C1168.79 623.227 1167.91 622.986 1167.17 622.503C1166.43 622.02 1165.86 621.355 1165.47 620.507C1165.07 619.66 1164.87 618.691 1164.87 617.602C1164.87 616.494 1165.07 615.517 1165.48 614.669C1165.89 613.817 1166.47 613.152 1167.2 612.673C1167.94 612.19 1168.8 611.949 1169.79 611.949C1170.55 611.949 1171.24 612.091 1171.86 612.375C1172.47 612.659 1172.98 613.057 1173.37 613.568C1173.76 614.08 1174.01 614.676 1174.1 615.358H1172.43C1172.3 614.861 1172.02 614.42 1171.57 614.037C1171.14 613.649 1170.55 613.455 1169.81 613.455C1169.16 613.455 1168.59 613.625 1168.09 613.966C1167.61 614.302 1167.23 614.778 1166.95 615.393C1166.68 616.004 1166.55 616.722 1166.55 617.545C1166.55 618.388 1166.68 619.122 1166.94 619.747C1167.21 620.372 1167.59 620.857 1168.08 621.203C1168.57 621.549 1169.15 621.722 1169.81 621.722C1170.25 621.722 1170.64 621.646 1171 621.494C1171.35 621.343 1171.66 621.125 1171.9 620.841C1172.15 620.557 1172.32 620.216 1172.43 619.818H1174.1C1174.01 620.462 1173.77 621.042 1173.4 621.558C1173.03 622.07 1172.54 622.477 1171.93 622.78C1171.32 623.078 1170.62 623.227 1169.81 623.227ZM1180.99 623.227C1180 623.227 1179.14 622.993 1178.39 622.524C1177.65 622.055 1177.08 621.4 1176.66 620.557C1176.25 619.714 1176.04 618.729 1176.04 617.602C1176.04 616.466 1176.25 615.474 1176.66 614.626C1177.08 613.779 1177.65 613.121 1178.39 612.652C1179.14 612.183 1180 611.949 1180.99 611.949C1181.97 611.949 1182.83 612.183 1183.57 612.652C1184.31 613.121 1184.89 613.779 1185.3 614.626C1185.72 615.474 1185.93 616.466 1185.93 617.602C1185.93 618.729 1185.72 619.714 1185.3 620.557C1184.89 621.4 1184.31 622.055 1183.57 622.524C1182.83 622.993 1181.97 623.227 1180.99 623.227ZM1180.99 621.722C1181.73 621.722 1182.35 621.53 1182.83 621.146C1183.31 620.763 1183.67 620.259 1183.9 619.634C1184.14 619.009 1184.25 618.331 1184.25 617.602C1184.25 616.873 1184.14 616.194 1183.9 615.564C1183.67 614.934 1183.31 614.425 1182.83 614.037C1182.35 613.649 1181.73 613.455 1180.99 613.455C1180.24 613.455 1179.62 613.649 1179.14 614.037C1178.66 614.425 1178.3 614.934 1178.07 615.564C1177.83 616.194 1177.72 616.873 1177.72 617.602C1177.72 618.331 1177.83 619.009 1178.07 619.634C1178.3 620.259 1178.66 620.763 1179.14 621.146C1179.62 621.53 1180.24 621.722 1180.99 621.722ZM1190.16 616.438V623H1188.49V612.091H1190.11V613.795H1190.25C1190.5 613.241 1190.89 612.796 1191.41 612.46C1191.93 612.119 1192.61 611.949 1193.43 611.949C1194.17 611.949 1194.82 612.1 1195.37 612.403C1195.92 612.702 1196.35 613.156 1196.66 613.767C1196.97 614.373 1197.12 615.14 1197.12 616.068V623H1195.45V616.182C1195.45 615.325 1195.22 614.657 1194.78 614.179C1194.33 613.696 1193.72 613.455 1192.95 613.455C1192.41 613.455 1191.93 613.571 1191.51 613.803C1191.1 614.035 1190.77 614.373 1190.53 614.818C1190.28 615.263 1190.16 615.803 1190.16 616.438ZM1207.91 614.534L1206.41 614.96C1206.31 614.709 1206.17 614.465 1205.99 614.229C1205.81 613.987 1205.56 613.788 1205.25 613.632C1204.94 613.476 1204.54 613.398 1204.05 613.398C1203.38 613.398 1202.83 613.552 1202.38 613.859C1201.94 614.162 1201.72 614.548 1201.72 615.017C1201.72 615.434 1201.87 615.763 1202.18 616.004C1202.48 616.246 1202.95 616.447 1203.6 616.608L1205.21 617.006C1206.19 617.242 1206.92 617.605 1207.4 618.092C1207.87 618.575 1208.11 619.198 1208.11 619.96C1208.11 620.585 1207.93 621.144 1207.57 621.636C1207.22 622.129 1206.72 622.517 1206.08 622.801C1205.44 623.085 1204.7 623.227 1203.85 623.227C1202.74 623.227 1201.82 622.986 1201.09 622.503C1200.36 622.02 1199.9 621.314 1199.7 620.386L1201.29 619.989C1201.45 620.576 1201.73 621.016 1202.15 621.31C1202.58 621.603 1203.14 621.75 1203.82 621.75C1204.6 621.75 1205.22 621.584 1205.68 621.253C1206.15 620.917 1206.38 620.514 1206.38 620.045C1206.38 619.667 1206.25 619.349 1205.98 619.094C1205.72 618.833 1205.31 618.639 1204.76 618.511L1202.94 618.085C1201.94 617.848 1201.21 617.482 1200.74 616.984C1200.28 616.482 1200.04 615.855 1200.04 615.102C1200.04 614.487 1200.22 613.942 1200.56 613.469C1200.91 612.995 1201.39 612.624 1201.99 612.354C1202.6 612.084 1203.28 611.949 1204.05 611.949C1205.13 611.949 1205.98 612.186 1206.59 612.659C1207.21 613.133 1207.65 613.758 1207.91 614.534ZM1215.38 612.091V613.511H1209.73V612.091H1215.38ZM1211.37 609.477H1213.05V619.875C1213.05 620.348 1213.12 620.704 1213.26 620.94C1213.4 621.172 1213.58 621.329 1213.8 621.409C1214.02 621.485 1214.25 621.523 1214.5 621.523C1214.68 621.523 1214.84 621.513 1214.95 621.494C1215.07 621.471 1215.17 621.452 1215.24 621.438L1215.58 622.943C1215.47 622.986 1215.31 623.028 1215.1 623.071C1214.9 623.118 1214.64 623.142 1214.33 623.142C1213.86 623.142 1213.39 623.04 1212.94 622.837C1212.49 622.633 1212.11 622.323 1211.81 621.906C1211.52 621.49 1211.37 620.964 1211.37 620.33V609.477ZM1217.9 623V612.091H1219.52V613.739H1219.63C1219.83 613.199 1220.19 612.761 1220.71 612.425C1221.23 612.089 1221.82 611.92 1222.48 611.92C1222.6 611.92 1222.75 611.923 1222.94 611.928C1223.12 611.932 1223.26 611.939 1223.36 611.949V613.653C1223.3 613.639 1223.17 613.618 1222.97 613.589C1222.77 613.556 1222.56 613.54 1222.33 613.54C1221.8 613.54 1221.33 613.651 1220.91 613.874C1220.5 614.091 1220.17 614.394 1219.93 614.783C1219.7 615.166 1219.58 615.604 1219.58 616.097V623H1217.9ZM1232.22 618.54V612.091H1233.89V623H1232.22V621.153H1232.1C1231.85 621.707 1231.45 622.179 1230.91 622.567C1230.37 622.95 1229.69 623.142 1228.87 623.142C1228.18 623.142 1227.58 622.993 1227.05 622.695C1226.52 622.392 1226.1 621.937 1225.8 621.331C1225.49 620.72 1225.34 619.951 1225.34 619.023V612.091H1227.02V618.909C1227.02 619.705 1227.24 620.339 1227.69 620.812C1228.14 621.286 1228.71 621.523 1229.41 621.523C1229.82 621.523 1230.25 621.416 1230.68 621.203C1231.11 620.99 1231.48 620.663 1231.77 620.223C1232.07 619.783 1232.22 619.222 1232.22 618.54ZM1236.96 623V612.091H1238.64V623H1236.96ZM1237.05 610.614L1238.78 607.318H1240.74L1238.53 610.614H1237.05ZM1245.83 623.227C1244.92 623.227 1244.12 622.998 1243.42 622.538C1242.73 622.074 1242.18 621.421 1241.79 620.578C1241.4 619.731 1241.2 618.729 1241.2 617.574C1241.2 616.428 1241.4 615.434 1241.79 614.591C1242.18 613.748 1242.73 613.097 1243.43 612.638C1244.13 612.179 1244.94 611.949 1245.86 611.949C1246.57 611.949 1247.13 612.067 1247.54 612.304C1247.96 612.536 1248.27 612.801 1248.49 613.099C1248.72 613.393 1248.89 613.634 1249.01 613.824H1249.15V608.455H1250.83V623H1249.21V621.324H1249.01C1248.89 621.523 1248.71 621.774 1248.49 622.077C1248.26 622.375 1247.93 622.643 1247.51 622.879C1247.09 623.111 1246.53 623.227 1245.83 623.227ZM1246.06 621.722C1246.73 621.722 1247.3 621.546 1247.76 621.196C1248.23 620.841 1248.58 620.351 1248.82 619.726C1249.06 619.096 1249.18 618.369 1249.18 617.545C1249.18 616.731 1249.06 616.018 1248.83 615.408C1248.59 614.792 1248.24 614.314 1247.78 613.973C1247.31 613.627 1246.74 613.455 1246.06 613.455C1245.35 613.455 1244.75 613.637 1244.28 614.001C1243.81 614.361 1243.46 614.851 1243.22 615.472C1242.99 616.087 1242.87 616.778 1242.87 617.545C1242.87 618.322 1242.99 619.027 1243.23 619.662C1243.47 620.292 1243.83 620.794 1244.3 621.168C1244.77 621.537 1245.36 621.722 1246.06 621.722ZM1258.56 623.227C1257.58 623.227 1256.71 622.993 1255.97 622.524C1255.23 622.055 1254.65 621.4 1254.24 620.557C1253.83 619.714 1253.62 618.729 1253.62 617.602C1253.62 616.466 1253.83 615.474 1254.24 614.626C1254.65 613.779 1255.23 613.121 1255.97 612.652C1256.71 612.183 1257.58 611.949 1258.56 611.949C1259.55 611.949 1260.41 612.183 1261.15 612.652C1261.89 613.121 1262.47 613.779 1262.88 614.626C1263.3 615.474 1263.51 616.466 1263.51 617.602C1263.51 618.729 1263.3 619.714 1262.88 620.557C1262.47 621.4 1261.89 622.055 1261.15 622.524C1260.41 622.993 1259.55 623.227 1258.56 623.227ZM1258.56 621.722C1259.31 621.722 1259.93 621.53 1260.41 621.146C1260.89 620.763 1261.25 620.259 1261.48 619.634C1261.71 619.009 1261.83 618.331 1261.83 617.602C1261.83 616.873 1261.71 616.194 1261.48 615.564C1261.25 614.934 1260.89 614.425 1260.41 614.037C1259.93 613.649 1259.31 613.455 1258.56 613.455C1257.82 613.455 1257.2 613.649 1256.72 614.037C1256.23 614.425 1255.88 614.934 1255.64 615.564C1255.41 616.194 1255.3 616.873 1255.3 617.602C1255.3 618.331 1255.41 619.009 1255.64 619.634C1255.88 620.259 1256.23 620.763 1256.72 621.146C1257.2 621.53 1257.82 621.722 1258.56 621.722ZM1273.79 614.534L1272.29 614.96C1272.19 614.709 1272.05 614.465 1271.87 614.229C1271.69 613.987 1271.44 613.788 1271.13 613.632C1270.82 613.476 1270.42 613.398 1269.93 613.398C1269.26 613.398 1268.71 613.552 1268.26 613.859C1267.82 614.162 1267.6 614.548 1267.6 615.017C1267.6 615.434 1267.75 615.763 1268.05 616.004C1268.36 616.246 1268.83 616.447 1269.47 616.608L1271.09 617.006C1272.07 617.242 1272.8 617.605 1273.27 618.092C1273.75 618.575 1273.99 619.198 1273.99 619.96C1273.99 620.585 1273.81 621.144 1273.45 621.636C1273.1 622.129 1272.6 622.517 1271.96 622.801C1271.32 623.085 1270.58 623.227 1269.73 623.227C1268.62 623.227 1267.7 622.986 1266.97 622.503C1266.24 622.02 1265.78 621.314 1265.58 620.386L1267.17 619.989C1267.32 620.576 1267.61 621.016 1268.03 621.31C1268.46 621.603 1269.02 621.75 1269.7 621.75C1270.48 621.75 1271.1 621.584 1271.56 621.253C1272.03 620.917 1272.26 620.514 1272.26 620.045C1272.26 619.667 1272.13 619.349 1271.86 619.094C1271.6 618.833 1271.19 618.639 1270.64 618.511L1268.82 618.085C1267.82 617.848 1267.09 617.482 1266.62 616.984C1266.16 616.482 1265.92 615.855 1265.92 615.102C1265.92 614.487 1266.1 613.942 1266.44 613.469C1266.79 612.995 1267.27 612.624 1267.87 612.354C1268.48 612.084 1269.16 611.949 1269.93 611.949C1271.01 611.949 1271.86 612.186 1272.47 612.659C1273.09 613.133 1273.53 613.758 1273.79 614.534Z" fill="black"/>
</svg>
